<svg width="1440" height="615" viewBox="0 0 1440 615" fill="none" xmlns="http://www.w3.org/2000/svg">
<g clip-path="url(#clip0_4703_23335)">
<g opacity="0.25">
<path fill-rule="evenodd" clip-rule="evenodd" d="M-48 690.595V701H1025L1014.37 690.037H889.539C889.479 690.037 889.423 690.013 889.381 689.971C889.339 689.929 889.315 689.872 889.315 689.813V484.168C889.315 484.096 889.33 484.025 889.359 483.959C889.388 483.892 889.43 483.833 889.483 483.783C889.537 483.734 889.6 483.696 889.669 483.671C889.738 483.646 889.811 483.636 889.884 483.64C895.541 483.978 901.75 484.29 908.511 484.574C913.338 484.767 913.257 479.62 913.684 475.143C913.779 474.108 914.392 465.899 915.523 450.516C915.686 448.323 915.645 446.236 915.401 444.253C915.337 443.712 915.076 443.214 914.67 442.853C914.263 442.491 913.739 442.293 913.196 442.294H878.238C878.129 442.294 878.021 442.272 877.92 442.229C877.819 442.186 877.728 442.124 877.652 442.045C877.577 441.966 877.517 441.873 877.478 441.771C877.439 441.669 877.421 441.56 877.425 441.451L878.33 412.723C878.339 412.457 878.275 412.192 878.144 411.958C878.014 411.724 877.821 411.529 877.588 411.393C876.612 410.838 875.528 410.473 874.336 410.297C870.8 409.789 867.206 409.339 863.554 408.947C863.474 408.939 863.397 408.912 863.329 408.869C863.261 408.826 863.204 408.767 863.164 408.698C863.123 408.628 863.099 408.55 863.095 408.47C863.09 408.39 863.105 408.309 863.137 408.236L870.739 390.989C870.871 390.688 870.94 390.364 870.942 390.035C870.943 389.707 870.877 389.382 870.747 389.08C870.618 388.778 870.427 388.506 870.188 388.281C869.949 388.056 869.666 387.882 869.357 387.771L868.686 387.537C868.378 387.426 868.051 387.377 867.723 387.392C867.396 387.407 867.075 387.487 866.778 387.627C866.482 387.766 866.216 387.963 865.996 388.205C865.775 388.448 865.605 388.732 865.495 389.04L858.89 407.333C858.803 407.574 858.652 407.787 858.451 407.949C858.25 408.11 858.008 408.213 857.752 408.246L857.01 408.348C856.909 408.362 856.806 408.35 856.712 408.313C856.617 408.276 856.533 408.215 856.468 408.135C856.403 408.056 856.359 407.961 856.34 407.86C856.321 407.759 856.327 407.654 856.359 407.556C859.008 399.489 862.551 390.64 866.989 381.01C867.35 380.229 867.441 379.35 867.248 378.511C867.055 377.671 866.589 376.919 865.922 376.371L865.78 376.269C865.499 376.041 865.168 375.884 864.814 375.81C864.459 375.736 864.092 375.749 863.743 375.846C863.394 375.943 863.073 376.123 862.807 376.37C862.54 376.616 862.337 376.923 862.213 377.264L851.268 407.627C851.178 407.878 851.013 408.095 850.795 408.251C850.578 408.407 850.317 408.494 850.049 408.5L848.057 408.541C847.9 408.543 847.743 408.514 847.598 408.455C847.452 408.395 847.32 408.307 847.21 408.195C847.099 408.083 847.013 407.949 846.956 407.803C846.899 407.656 846.873 407.5 846.878 407.343L848.209 361.042C848.228 360.33 847.982 359.636 847.518 359.094C847.055 358.552 846.407 358.201 845.699 358.109L845.547 358.088C845.192 358.032 844.829 358.052 844.483 358.146C844.137 358.241 843.814 358.408 843.537 358.636C843.26 358.865 843.035 359.15 842.877 359.472C842.719 359.794 842.632 360.146 842.62 360.504L842.305 370.067C842.301 370.179 842.268 370.288 842.209 370.383C842.15 370.479 842.068 370.557 841.969 370.611C841.871 370.666 841.761 370.693 841.649 370.692C841.537 370.691 841.427 370.661 841.33 370.605C840.022 369.854 838.569 369.553 836.97 369.702C836.479 369.746 836.023 369.976 835.698 370.344C835.372 370.713 835.202 371.191 835.222 371.681L836.563 408.206C836.568 408.301 836.553 408.395 836.519 408.484C836.486 408.574 836.435 408.655 836.37 408.724C836.304 408.793 836.226 408.849 836.139 408.887C836.051 408.925 835.957 408.945 835.862 408.947C832.123 409.018 828.098 408.469 827.895 413.718C827.563 422.312 827.482 431.581 827.651 441.522C827.653 441.602 827.638 441.681 827.609 441.754C827.579 441.828 827.535 441.896 827.479 441.952C827.423 442.009 827.357 442.054 827.284 442.085C827.21 442.115 827.131 442.131 827.052 442.131H676.987C676.729 442.131 676.477 442.054 676.263 441.909C676.049 441.764 675.884 441.559 675.788 441.319L671.388 430.437C671.362 430.369 671.352 430.296 671.36 430.224C671.369 430.152 671.394 430.083 671.435 430.022C671.476 429.962 671.532 429.913 671.596 429.879C671.66 429.845 671.732 429.828 671.805 429.828C690.002 429.99 706.989 430.068 722.768 430.061C724.902 430.061 726.026 428.847 726.142 426.417C727.469 398.487 728.432 375.579 729.028 357.693C729.139 354.109 726.314 353.845 723.317 353.855C662.195 354.052 622.39 354.126 603.901 354.079C600.202 354.079 599.623 356.007 599.501 359.418C598.397 390.299 597.675 411.616 597.337 423.372C597.235 426.955 597.855 429.706 601.879 429.706C612.996 429.72 624.727 429.777 637.071 429.879C637.147 429.879 637.222 429.897 637.291 429.931C637.359 429.965 637.419 430.015 637.465 430.075C637.511 430.136 637.543 430.207 637.557 430.282C637.571 430.357 637.568 430.434 637.548 430.508L634.804 441.197C634.764 441.352 634.674 441.488 634.549 441.585C634.424 441.683 634.271 441.735 634.113 441.735H517.828C517.763 441.735 517.699 441.722 517.639 441.697C517.579 441.672 517.525 441.635 517.479 441.589C517.434 441.543 517.398 441.488 517.374 441.427C517.35 441.367 517.339 441.303 517.34 441.238C517.408 435.641 517.184 429.956 516.669 424.184C516.473 421.971 515.85 420.089 514.8 418.54C514.679 418.364 514.598 418.164 514.563 417.954C514.528 417.743 514.539 417.528 514.596 417.321C516.012 412.083 517.557 406.818 519.23 401.526C519.772 399.821 519.793 398.2 519.291 396.663C519.24 396.501 519.155 396.352 519.04 396.228C518.926 396.103 518.786 396.006 518.631 395.943C516.395 395.009 515.064 395.78 514.474 397.78C512.876 403.187 511.107 409.62 509.17 417.078C509.151 417.144 509.114 417.204 509.062 417.25C509.011 417.296 508.948 417.327 508.88 417.338C508.812 417.35 508.742 417.342 508.678 417.316C508.614 417.289 508.559 417.246 508.519 417.189L508.489 417.159C508.334 417.019 508.219 416.842 508.153 416.645C508.087 416.447 508.073 416.236 508.113 416.032L513.997 386.39C514.09 385.923 514.084 385.441 513.98 384.976C513.877 384.511 513.677 384.072 513.394 383.688C513.112 383.303 512.752 382.981 512.338 382.742C511.924 382.503 511.464 382.352 510.989 382.299L510.694 382.259C510.177 382.199 509.653 382.243 509.152 382.387C508.652 382.53 508.185 382.771 507.778 383.096C507.371 383.42 507.032 383.822 506.781 384.277C506.53 384.733 506.371 385.234 506.314 385.751L502.757 417.159C502.736 417.365 502.641 417.556 502.49 417.698C502.338 417.839 502.141 417.922 501.934 417.93H501.904C501.689 417.924 501.485 417.84 501.329 417.693C501.174 417.547 501.078 417.35 501.06 417.139L498.347 384.857C498.262 383.832 497.782 382.879 497.01 382.198C496.237 381.516 495.231 381.16 494.201 381.203H494.15C493.665 381.228 493.191 381.354 492.756 381.571C492.322 381.788 491.937 382.092 491.626 382.465C491.315 382.838 491.084 383.27 490.949 383.736C490.813 384.202 490.775 384.691 490.837 385.172L495.075 417.585C495.085 417.664 495.079 417.743 495.056 417.819C495.034 417.894 494.996 417.964 494.945 418.024C494.894 418.083 494.832 418.131 494.761 418.164C494.691 418.197 494.614 418.214 494.536 418.215L487.535 418.357C487.04 418.366 486.565 418.549 486.193 418.874C485.821 419.199 485.577 419.645 485.502 420.133C484.432 427.192 483.927 434.274 483.988 441.38C483.988 441.472 483.952 441.559 483.887 441.624C483.822 441.689 483.734 441.725 483.643 441.725H423.279C423.09 441.725 422.908 441.652 422.773 441.521C422.638 441.39 422.561 441.211 422.558 441.025L422.385 432.406C422.384 432.325 422.399 432.245 422.429 432.17C422.459 432.095 422.503 432.027 422.56 431.969C422.617 431.911 422.685 431.866 422.759 431.834C422.834 431.803 422.914 431.787 422.995 431.787C428.259 431.74 441.476 431.709 462.648 431.696C464.7 431.696 466.56 431.479 468.227 431.046C468.693 430.924 469.107 430.652 469.404 430.273C469.702 429.893 469.866 429.427 469.873 428.945C470.489 379.339 471.245 338.06 472.139 305.109C472.207 302.679 471.069 301.441 468.725 301.393C465.053 301.326 461.249 301.383 457.312 301.566C395.079 304.449 335.885 307.802 279.729 311.626C274.678 311.971 275.664 314.884 275.837 318.975C276.027 323.523 276.318 328.457 276.711 333.776C278.737 360.887 280.728 388.725 282.686 417.291C282.889 420.228 283.174 423.175 283.54 426.133C284.139 431.005 288.133 430.833 292.239 430.833C304.914 430.853 333.941 431.022 379.318 431.34C379.372 431.341 379.426 431.354 379.475 431.376C379.525 431.399 379.568 431.432 379.604 431.472C379.639 431.512 379.666 431.559 379.681 431.61C379.697 431.661 379.701 431.714 379.694 431.767L378.637 441.157C378.625 441.25 378.579 441.335 378.508 441.397C378.436 441.459 378.345 441.492 378.251 441.492H284.089C283.887 441.492 283.691 441.43 283.527 441.313C283.363 441.197 283.24 441.032 283.174 440.842C279.949 431.814 275.59 422.238 270.095 412.114C270.059 412.048 270.038 411.974 270.035 411.899C270.031 411.824 270.045 411.749 270.076 411.68C270.107 411.611 270.153 411.551 270.211 411.502C270.269 411.454 270.337 411.42 270.41 411.403C276.812 409.951 277.788 402.399 277.392 396.988C277.097 392.857 274.8 388.928 270.278 388.431C268.612 388.248 266.908 388.153 265.167 388.146C264.865 388.146 264.572 388.043 264.334 387.856C264.097 387.668 263.928 387.406 263.856 387.111L227.953 238.567C227.802 237.947 227.8 237.3 227.946 236.679C228.093 236.058 228.384 235.481 228.796 234.994C233.017 229.986 238.549 222.886 245.391 213.696C253.06 203.389 261.874 191.387 271.833 177.689C283.337 161.843 291.964 150.596 302.492 136.993C310.276 126.943 316.076 119.214 319.89 113.807C320.113 113.493 320.424 113.25 320.785 113.108C321.145 112.965 321.54 112.93 321.922 113.005L338.202 116.223C338.243 116.23 338.282 116.249 338.312 116.278C338.342 116.307 338.362 116.345 338.37 116.386C338.378 116.427 338.373 116.47 338.355 116.508C338.338 116.546 338.309 116.578 338.273 116.599C331.556 120.994 326.373 128.212 322.166 135.064C307.157 159.508 301.232 189.638 302.025 218.061C302.116 221.289 312.471 222.974 315.073 223.37C338.073 226.91 361.358 227.532 384.927 225.238C394.094 224.345 404.581 222.558 413.29 218.376C413.783 218.137 414.191 217.753 414.46 217.276C414.728 216.799 414.845 216.251 414.794 215.706C414.144 208.58 413.029 201.707 411.451 195.089C407.65 179.117 402.61 164.263 396.329 150.524C388.301 132.983 376.574 114.376 355.163 112.934C354.847 112.914 354.55 112.776 354.33 112.547C354.11 112.318 353.983 112.014 353.974 111.696L353.313 77.4147C353.294 76.4767 352.908 75.5834 352.238 74.9266C351.567 74.2699 350.665 73.9021 349.726 73.9023H349.208C348.27 73.9023 347.37 74.2734 346.707 74.934C346.044 75.5946 345.671 76.4906 345.671 77.4248V107.209C345.672 107.236 345.666 107.262 345.655 107.287C345.643 107.311 345.626 107.333 345.605 107.35C345.584 107.368 345.559 107.38 345.531 107.388C345.504 107.395 345.476 107.396 345.448 107.392C333.192 105.212 323.904 103.5 317.583 102.255C316.777 102.093 315.507 102.492 313.772 103.453C313.49 103.607 313.236 103.806 313.02 104.042C311.862 105.3 309.816 107.706 306.882 111.259C302.126 117.005 294.43 126.642 283.794 140.17C266.691 161.935 246.336 190.977 232.678 208.864C230.849 211.267 229.521 212.935 228.695 213.869C228.588 213.99 228.446 214.076 228.287 214.112C228.129 214.148 227.962 214.134 227.811 214.072C221.713 211.625 213.868 212.478 210.84 219.005C209.146 222.673 208.797 226.521 209.793 230.547C215.288 252.772 220.758 274.851 226.205 296.785C234.934 331.908 243.775 368.443 253.49 409.657C253.551 409.911 253.555 410.175 253.502 410.429C253.449 410.683 253.341 410.922 253.186 411.129C251.363 413.559 249.727 416.469 248.277 419.859C245.384 426.606 243.511 433.679 242.658 441.075C242.643 441.214 242.579 441.341 242.478 441.435C242.377 441.528 242.245 441.581 242.109 441.583C239.812 441.61 225.165 441.59 198.168 441.522C192.345 441.502 192.101 444.689 192.274 449.674C192.592 459.101 193.049 468.941 193.646 479.194C193.788 481.623 195.204 483.004 197.893 483.335C201.707 483.802 206.575 484.036 212.496 484.036C212.733 484.036 212.96 484.128 213.129 484.293C213.298 484.458 213.395 484.683 213.401 484.919L214.163 524.235C214.164 524.311 214.151 524.387 214.123 524.457C214.095 524.528 214.053 524.593 214 524.647C213.948 524.702 213.884 524.746 213.815 524.776C213.745 524.806 213.67 524.823 213.594 524.824L112.399 526.783C112.333 526.784 112.268 526.769 112.209 526.74C112.149 526.712 112.097 526.67 112.057 526.618C112.017 526.565 111.989 526.505 111.976 526.44C111.963 526.375 111.965 526.309 111.983 526.245C113.209 521.968 114.747 517.694 116.596 513.424C119.177 507.424 123.882 504.369 130.03 500.938C146.222 491.903 163.654 483.609 182.325 476.057C183.497 475.576 184.601 474.927 185.638 474.108C188.361 471.946 186.949 469.184 184.195 468.24C177.386 465.906 170.029 465.53 162.427 465.601C147.692 465.743 135.091 470.748 122.897 479.407C122.827 479.457 122.741 479.482 122.655 479.478C122.569 479.474 122.487 479.441 122.422 479.385C122.356 479.329 122.311 479.253 122.294 479.169C122.277 479.084 122.289 478.996 122.328 478.92C124.116 475.346 125.915 471.083 127.602 468.078C134.532 455.687 142.591 444.216 151.778 433.665C157.516 427.073 164.866 420.465 173.829 413.839C174.236 413.535 175.222 412.588 176.787 410.997C177.04 410.737 177.229 410.42 177.335 410.073C177.661 408.963 177.586 407.813 177.112 406.622C176.973 406.285 176.739 405.998 176.441 405.8C175.432 405.123 173.968 404.7 172.051 404.531C158.424 403.292 142.916 407.231 133.74 417.646C133.697 417.7 133.636 417.735 133.569 417.744C133.502 417.754 133.434 417.738 133.377 417.699C133.321 417.66 133.28 417.601 133.262 417.533C133.245 417.465 133.252 417.394 133.282 417.332C141.758 401.062 149.82 383.602 157.468 364.951C157.942 363.793 157.892 362.552 157.316 361.225C157.169 360.888 156.931 360.598 156.628 360.387C156.325 360.176 155.969 360.051 155.598 360.027C153.871 359.912 152.052 360.22 150.141 360.951C140.982 364.45 133.161 370.006 126.677 377.62C126.641 377.66 126.592 377.687 126.539 377.698C126.485 377.708 126.43 377.701 126.382 377.678C126.334 377.654 126.296 377.616 126.274 377.569C126.252 377.521 126.247 377.468 126.26 377.417C127.493 371.928 128.503 365.756 129.289 358.901C129.512 356.952 129.468 355.544 129.157 354.678C129.036 354.35 128.845 354.059 128.598 353.825C127.209 352.512 125.756 352.59 124.238 354.058C119.658 358.478 115.821 363.31 112.724 368.554C112.692 368.604 112.646 368.644 112.591 368.667C112.536 368.69 112.475 368.695 112.417 368.683C112.358 368.671 112.305 368.642 112.264 368.599C112.223 368.556 112.196 368.502 112.186 368.443C109.855 350.766 107.857 336.253 106.19 324.904C105.899 322.867 105.32 320.089 104.452 316.57C103.873 314.235 102.755 312.793 100.52 312.753C99.9699 312.741 99.4272 312.922 98.9742 313.268C98.5211 313.615 98.1825 314.107 98.0097 314.671C90.8454 337.918 87.1869 362.21 87.6239 386.076C87.6917 389.574 88.0948 393.121 88.8333 396.714C88.8388 396.737 88.8356 396.762 88.8243 396.783C88.813 396.805 88.7945 396.822 88.7729 396.83C88.7514 396.838 88.7285 396.837 88.7094 396.826C88.6902 396.816 88.6762 396.798 88.6707 396.775C85.3307 389.811 81.8416 383.365 78.2035 377.437C67.7975 360.464 55.654 342.943 42.5041 328.893C41.2644 327.574 38.9474 325.543 37.2808 326.081C36.6774 326.275 36.1517 326.665 35.7806 327.194C35.4094 327.724 35.2123 328.365 35.2178 329.025C35.2381 330.778 35.5972 332.541 36.295 334.314C46.369 359.929 58.1063 383.984 71.5068 406.48C75.3074 412.865 78.0004 417.981 82.0347 424.478C82.0671 424.53 82.0791 424.591 82.0682 424.651C82.0574 424.711 82.0246 424.764 81.9762 424.801C81.9278 424.838 81.8675 424.856 81.8069 424.85C81.7462 424.845 81.6897 424.817 81.6485 424.772C73.8982 416.821 65.0979 409.806 55.2474 403.729C42.1246 395.614 29.0019 387.998 15.8792 380.878C14.4565 380.107 11.4181 380.228 11.5197 382.543C11.6566 385.463 16.7489 389.632 19.5153 391.897L19.8323 392.156C21.7631 393.747 26.9052 397.746 35.2584 404.155C42.6158 409.799 50.8335 416.814 59.9117 425.199C66.3138 431.114 72.0792 437.367 77.2077 443.958C79.4705 446.855 81.3267 449.833 82.7765 452.892C82.8136 452.964 82.8231 453.048 82.8031 453.127C82.783 453.205 82.7349 453.274 82.6677 453.32C82.6004 453.366 82.5186 453.386 82.4376 453.377C82.3567 453.367 82.2822 453.328 82.2279 453.267C64.1596 434.548 42.5346 419.758 17.5967 410.337C13.5115 408.794 9.18238 407.745 4.60942 407.19C2.02823 406.876 1.35748 409.403 2.2924 411.444C4.61953 416.54 8.04414 421.727 12.0582 426.244C19.0362 434.095 26.6883 441.163 35.0145 447.45C35.0609 447.484 35.0953 447.532 35.1122 447.587C35.129 447.641 35.1276 447.7 35.108 447.754C35.0885 447.808 35.052 447.854 35.0039 447.885C34.9559 447.917 34.899 447.931 34.8418 447.928C17.2681 446.581 0.581907 449.268 -15.2168 455.988C-15.6775 456.184 -16.8666 456.932 -18.7838 458.231C-25.3587 462.667 -18.6111 467.428 -14.0076 468.129C4.6636 471.005 22.9047 475.522 40.7155 481.681C45.8373 483.454 50.7963 485.514 55.5928 487.863C71.9674 495.882 82.6411 508.717 87.6138 526.367C87.6384 526.454 87.6425 526.546 87.6257 526.635C87.609 526.725 87.5717 526.809 87.5169 526.883C87.4621 526.956 87.3911 527.016 87.3093 527.059C87.2275 527.101 87.137 527.125 87.0447 527.128L-4.44506 529.29C-4.4989 529.29 -4.55019 529.297 -4.59743 529.311C-9.85464 530.542 -12.0734 533.838 -11.2537 539.198C-10.6033 543.482 -8.99428 548.344 -6.42664 553.786C-4.82103 557.207 -2.62597 557.044 0.646242 557.42C0.804856 557.438 0.953264 557.507 1.06885 557.617C1.18444 557.727 1.26082 557.871 1.28641 558.029C8.25087 602.376 16.5567 646.423 26.204 690.168C26.213 690.211 26.2125 690.255 26.2024 690.297C26.1924 690.34 26.173 690.379 26.1458 690.413C26.1186 690.447 26.0842 690.475 26.045 690.494C26.0059 690.513 25.9629 690.523 25.9194 690.524L-48 690.595ZM282.585 318.925L291.253 423.372C291.266 423.532 291.339 423.682 291.457 423.791C291.576 423.901 291.732 423.961 291.893 423.96H462.983C463.108 423.96 463.228 423.911 463.317 423.824C463.406 423.737 463.458 423.618 463.46 423.493L465.757 307.312C465.76 307.218 465.744 307.126 465.709 307.039C465.674 306.953 465.621 306.874 465.554 306.809C465.487 306.744 465.407 306.694 465.32 306.662C465.232 306.629 465.139 306.616 465.046 306.621C412.436 309.352 345.143 313.067 283.662 317.676C283.509 317.686 283.359 317.727 283.222 317.795C283.084 317.864 282.962 317.959 282.862 318.075C282.761 318.191 282.685 318.326 282.638 318.472C282.59 318.618 282.572 318.772 282.585 318.925ZM99.1681 373.671C99.2223 374.138 99.4222 374.375 99.7677 374.381C100.106 374.381 100.313 374.151 100.388 373.691C102.39 360.87 101.973 347.46 101.394 334.568C101.129 328.653 100.838 325.692 100.52 325.685C100.208 325.679 99.8253 328.629 99.3714 334.537C98.3958 347.409 97.5625 360.799 99.1681 373.671ZM45.5528 341.542L82.5327 396.927C82.5407 396.938 82.5507 396.947 82.5622 396.954C82.5736 396.961 82.5864 396.965 82.5996 396.967C82.6128 396.969 82.6263 396.968 82.6393 396.965C82.6522 396.962 82.6643 396.956 82.675 396.948L82.807 396.856C83.1494 396.595 81.5373 393.438 78.3239 388.077C75.1105 382.717 70.5579 375.591 65.6635 368.26L65.5619 368.108C63.1331 364.47 60.6931 360.891 58.3812 357.575C56.0693 354.259 53.9309 351.272 52.0879 348.783C50.245 346.295 48.7335 344.354 47.6401 343.071C46.5467 341.789 45.8926 341.19 45.7152 341.308L45.5832 341.4C45.5717 341.407 45.5618 341.416 45.554 341.427C45.5462 341.439 45.5408 341.451 45.538 341.464C45.5351 341.478 45.535 341.491 45.5375 341.505C45.5401 341.518 45.5453 341.531 45.5528 341.542ZM607.265 359.79C607.239 359.814 607.217 359.841 607.199 359.87C607.159 359.932 607.136 360.004 607.133 360.078L604.389 422.854C604.386 422.912 604.395 422.969 604.416 423.023C604.436 423.077 604.467 423.127 604.507 423.169C604.547 423.21 604.595 423.244 604.648 423.266C604.701 423.289 604.758 423.301 604.816 423.301H717.839C717.949 423.301 718.055 423.259 718.134 423.183C718.214 423.107 718.261 423.004 718.266 422.894L721 360.535C721.002 360.477 720.993 360.42 720.973 360.366C720.962 360.336 720.948 360.308 720.931 360.281C720.923 360.27 720.916 360.26 720.908 360.25C720.899 360.239 720.891 360.23 720.882 360.22C720.842 360.178 720.794 360.145 720.741 360.123C720.721 360.114 720.701 360.107 720.681 360.102C720.66 360.097 720.64 360.093 720.619 360.091C720.604 360.089 720.588 360.088 720.573 360.088L607.56 359.672C607.45 359.672 607.344 359.714 607.265 359.79ZM126.392 395.1C130.281 389.605 133.56 385.264 136.229 382.076C138.906 378.888 142.608 374.899 147.337 370.108C147.397 370.062 147.437 369.994 147.448 369.919C147.455 369.866 147.447 369.812 147.426 369.764C147.422 369.754 147.417 369.744 147.411 369.734C147.405 369.725 147.399 369.716 147.393 369.707C147.347 369.646 147.279 369.606 147.203 369.596C147.128 369.585 147.052 369.605 146.991 369.651C141.802 372.514 137.462 376.026 133.973 380.188C130.484 384.35 127.788 389.233 125.884 394.836C125.876 394.852 125.869 394.869 125.864 394.885C125.859 394.904 125.855 394.924 125.853 394.943C125.85 394.981 125.854 395.019 125.865 395.054C125.877 395.09 125.895 395.123 125.919 395.152C125.943 395.181 125.973 395.205 126.006 395.222C126.04 395.239 126.076 395.25 126.114 395.253C126.151 395.256 126.189 395.252 126.225 395.241C126.237 395.237 126.249 395.233 126.26 395.227C126.267 395.224 126.275 395.22 126.282 395.216C126.296 395.207 126.31 395.198 126.323 395.187C126.351 395.163 126.375 395.133 126.392 395.1ZM840.857 377.543C840.659 377.745 840.549 378.017 840.551 378.3L840.807 407.575C840.81 407.858 840.924 408.128 841.126 408.326C841.328 408.524 841.6 408.634 841.883 408.631L841.904 408.631C842.187 408.629 842.457 408.514 842.655 408.312C842.854 408.111 842.964 407.839 842.961 407.556L842.706 378.281C842.703 377.998 842.588 377.728 842.386 377.53C842.185 377.332 841.912 377.222 841.629 377.224L841.609 377.224C841.326 377.227 841.056 377.341 840.857 377.543ZM833.139 416.042L832.641 441.177C832.64 441.266 832.656 441.355 832.688 441.438C832.72 441.521 832.769 441.597 832.83 441.661C832.891 441.725 832.965 441.776 833.045 441.812C833.07 441.823 833.096 441.832 833.122 441.84C833.157 441.85 833.194 441.858 833.231 441.862C833.254 441.865 833.278 441.867 833.301 441.867L840.689 442.009C840.849 442.012 841.004 441.952 841.12 441.842C841.236 441.732 841.304 441.58 841.309 441.421L841.827 415.129C841.831 414.932 841.793 414.737 841.717 414.557C841.64 414.376 841.526 414.213 841.382 414.079C841.238 413.945 841.068 413.843 840.882 413.779C840.696 413.715 840.499 413.69 840.303 413.708L834.917 414.144C834.439 414.186 833.993 414.403 833.665 414.754C833.337 415.104 833.149 415.563 833.139 416.042ZM71.3758 452.226C71.4498 452.22 71.5188 452.186 71.5678 452.13L71.578 452.12C71.6381 452.055 71.6706 451.968 71.6687 451.88C71.6674 451.821 71.6512 451.764 71.6223 451.714C71.6144 451.7 71.6056 451.687 71.5959 451.675C71.5872 451.664 71.5778 451.653 71.5678 451.643C66.2089 446.405 61.8935 442.595 58.6213 440.213C45.0514 430.332 30.5262 422.326 15.0459 416.195C14.1787 415.849 13.7148 415.677 13.6538 415.677C13.4458 415.673 13.2414 415.733 13.0686 415.849C12.8958 415.964 12.7627 416.13 12.6874 416.324C12.612 416.518 12.5981 416.73 12.6474 416.932C12.6966 417.134 12.8066 417.316 12.9626 417.453C15.0831 419.294 17.7051 420.928 20.8282 422.356C28.9986 426.079 35.2516 429.053 39.5874 431.279C50.068 436.666 60.596 443.627 71.1714 452.161C71.2284 452.208 71.3017 452.232 71.3758 452.226ZM92.0922 518.043C92.1324 517.991 92.1517 517.926 92.1461 517.86C92.1055 510.483 90.3745 503.408 86.9533 496.634C77.6752 478.27 57.9911 455.683 35.6039 454.14C25.5095 453.443 15.7573 454.462 6.34718 457.196C6.15565 457.251 5.98324 457.358 5.84915 457.506C5.71506 457.653 5.62463 457.835 5.58777 458.03C5.5509 458.226 5.56899 458.428 5.64029 458.614C5.71158 458.8 5.83314 458.963 5.99144 459.084C7.30574 460.072 8.83007 460.806 10.5644 461.287C19.27 463.703 29.1239 466.376 40.1261 469.306C43.2154 470.132 48.2897 472.095 55.349 475.194C73.2851 483.071 85.4188 500.004 91.6278 517.951C91.6451 518.015 91.6855 518.07 91.7412 518.105C91.7969 518.14 91.8638 518.154 91.9288 518.142C91.9937 518.131 92.052 518.095 92.0922 518.043ZM577.611 478.596C577.504 478.701 577.443 478.845 577.441 478.996L577.441 479.037C577.44 479.187 577.498 479.332 577.604 479.44C577.71 479.548 577.854 479.609 578.005 479.61L682.773 480.523C682.924 480.525 683.069 480.466 683.177 480.36C683.284 480.255 683.345 480.111 683.347 479.96L683.347 479.919C683.348 479.768 683.29 479.623 683.184 479.516C683.078 479.408 682.934 479.347 682.783 479.346L578.015 478.433C577.864 478.431 577.719 478.49 577.611 478.596ZM203.259 479.508C279.543 479.921 317.685 479.925 317.685 479.518C317.691 479.112 279.553 478.713 203.269 478.321C202.233 478.314 201.714 478.51 201.714 478.909C201.708 479.302 202.222 479.502 203.259 479.508ZM460.615 480.077C472.383 480.063 478.267 480.013 478.267 479.925C478.267 479.837 472.386 479.688 460.625 479.478C436.487 479.045 412.352 478.73 388.22 478.534C386.032 478.52 384.934 478.727 384.927 479.153C384.927 479.579 386.022 479.799 388.21 479.813C412.342 480.023 436.477 480.111 460.615 480.077ZM758.349 479.342C758.327 479.393 758.316 479.449 758.316 479.505L758.315 479.545C758.315 479.601 758.326 479.657 758.347 479.709C758.368 479.761 758.4 479.808 758.439 479.848C758.467 479.875 758.498 479.899 758.532 479.919C758.546 479.927 758.561 479.934 758.577 479.941C758.596 479.949 758.616 479.955 758.636 479.961C758.67 479.969 758.705 479.974 758.74 479.974L848.532 480.444C848.588 480.444 848.643 480.433 848.695 480.412C848.747 480.391 848.794 480.36 848.834 480.32C848.874 480.281 848.905 480.234 848.927 480.182C848.949 480.131 848.96 480.075 848.961 480.019L848.961 479.979C848.961 479.942 848.956 479.905 848.947 479.869C848.946 479.865 848.945 479.861 848.944 479.857C848.942 479.853 848.941 479.848 848.94 479.844C848.936 479.835 848.933 479.825 848.929 479.816C848.923 479.801 848.916 479.786 848.908 479.772C848.896 479.749 848.881 479.728 848.865 479.708C848.856 479.697 848.847 479.687 848.837 479.677C848.798 479.637 848.751 479.605 848.699 479.584C848.648 479.562 848.592 479.551 848.536 479.55L758.745 479.081C758.703 479.08 758.661 479.086 758.621 479.098C758.607 479.102 758.594 479.107 758.581 479.112C758.529 479.133 758.482 479.165 758.442 479.204C758.402 479.243 758.371 479.29 758.349 479.342ZM104.615 506.527C104.663 507.06 104.712 507.333 104.758 507.333C104.805 507.332 104.849 507.058 104.887 506.525C104.926 505.992 104.958 505.211 104.983 504.227C105.007 503.242 105.023 502.074 105.03 500.788C105.037 499.502 105.034 498.124 105.021 496.732C105.009 495.34 104.988 493.962 104.959 492.677C104.93 491.391 104.894 490.223 104.852 489.239C104.81 488.255 104.764 487.475 104.716 486.943C104.669 486.411 104.62 486.137 104.573 486.138C104.527 486.138 104.483 486.412 104.444 486.945C104.406 487.478 104.373 488.259 104.349 489.244C104.324 490.228 104.309 491.396 104.302 492.682C104.295 493.968 104.298 495.347 104.31 496.738C104.322 498.13 104.344 499.508 104.373 500.794C104.402 502.079 104.438 503.247 104.48 504.231C104.521 505.215 104.567 505.995 104.615 506.527ZM233.949 690.575H795.153C795.344 690.575 795.528 690.499 795.663 690.363C795.798 690.228 795.874 690.045 795.874 689.854V499.76C795.874 499.583 795.805 499.412 795.681 499.287C795.557 499.161 795.389 499.09 795.214 499.09H234.386C234.2 499.09 234.021 499.164 233.89 499.295C233.758 499.427 233.684 499.605 233.684 499.791V523.189C233.685 523.583 233.795 523.969 234.003 524.304C234.212 524.64 234.509 524.911 234.863 525.088C238.186 526.722 239.314 529.158 239.538 533.229C240.019 542.244 240.161 547.539 239.965 549.116C239.572 552.168 238.102 554.08 235.554 554.851C233.949 555.346 233.241 556.334 233.43 557.816C233.566 558.871 233.634 559.426 233.634 559.48C233.518 605.073 233.434 648.582 233.38 690.006C233.38 690.081 233.394 690.155 233.423 690.224C233.451 690.293 233.493 690.355 233.546 690.408C233.599 690.461 233.662 690.503 233.731 690.531C233.8 690.56 233.874 690.575 233.949 690.575ZM853.314 499.678C853.269 499.786 853.245 499.902 853.245 500.019L852.584 689.239C852.583 689.356 852.606 689.472 852.651 689.581C852.695 689.689 852.761 689.788 852.844 689.871C852.926 689.955 853.025 690.021 853.133 690.066C853.202 690.095 853.274 690.115 853.348 690.126C853.363 690.128 853.378 690.13 853.393 690.131C853.42 690.134 853.447 690.135 853.475 690.135L872.234 690.201C872.352 690.201 872.468 690.178 872.577 690.134C872.685 690.089 872.784 690.024 872.867 689.941C872.951 689.858 873.017 689.76 873.062 689.652C873.108 689.544 873.131 689.428 873.132 689.31L873.793 500.091C873.793 499.974 873.77 499.857 873.726 499.749C873.681 499.64 873.616 499.542 873.533 499.458C873.45 499.375 873.352 499.309 873.244 499.264C873.135 499.219 873.019 499.195 872.902 499.195L854.142 499.129C854.025 499.129 853.909 499.152 853.8 499.196C853.691 499.241 853.593 499.306 853.509 499.389C853.426 499.471 853.36 499.57 853.314 499.678ZM809.524 689.943C809.688 690.107 809.91 690.199 810.142 690.199H827.204C827.436 690.199 827.658 690.107 827.822 689.943C827.986 689.78 828.078 689.558 828.078 689.326V499.912C828.078 499.681 827.986 499.459 827.822 499.295C827.658 499.131 827.436 499.039 827.204 499.039H810.853C810.621 499.039 810.399 499.131 810.235 499.295C810.071 499.459 809.979 499.681 809.979 499.912L809.268 689.326C809.268 689.558 809.36 689.78 809.524 689.943ZM211.135 550.568C213.296 550.534 218.841 550.229 227.77 549.654C227.805 549.651 227.839 549.637 227.866 549.614C227.893 549.591 227.913 549.56 227.922 549.525C227.93 549.491 227.929 549.454 227.916 549.421C227.903 549.388 227.881 549.359 227.851 549.339C227.695 549.231 227.526 549.207 227.343 549.268C227.229 549.309 227.109 549.329 226.988 549.329C178.677 549.877 133.946 550.101 92.7965 549.999C73.7159 549.952 57.045 550.197 40.1032 550.446H40.1H40.0966H40.092H40.0863C27.9252 550.625 15.6238 550.806 2.19087 550.882C2.14149 550.882 2.09251 550.892 2.04689 550.911C2.02712 550.919 2.00819 550.929 1.99018 550.94C1.96666 550.955 1.94483 550.973 1.92506 550.992C1.90559 551.012 1.88834 551.033 1.87361 551.056C1.862 551.075 1.85193 551.094 1.84353 551.114C1.83857 551.126 1.83429 551.138 1.83055 551.15C1.82666 551.163 1.82345 551.177 1.82101 551.19C1.81826 551.205 1.81643 551.22 1.81551 551.235C1.81506 551.243 1.81483 551.25 1.81483 551.258V551.268C1.81483 551.315 1.82422 551.361 1.84193 551.404C1.84948 551.422 1.85857 551.44 1.8691 551.456C1.87529 551.466 1.88193 551.476 1.8891 551.485C1.89834 551.497 1.90834 551.508 1.9191 551.519C1.98581 551.586 2.07623 551.623 2.17056 551.623C11.2494 551.697 20.7435 551.64 30.2629 551.584C40.4984 551.523 50.7632 551.462 60.5723 551.562C67.6727 551.639 74.9231 551.504 82.0688 551.371L82.0756 551.371C87.2614 551.275 92.3918 551.179 97.3695 551.167C162.143 550.95 200.065 550.75 211.135 550.568Z" fill="black"/>
<path fill-rule="evenodd" clip-rule="evenodd" d="M99.7677 374.381C99.4222 374.375 99.2223 374.138 99.1681 373.671C97.5625 360.799 98.3958 347.409 99.3714 334.537C99.8253 328.629 100.208 325.679 100.52 325.685C100.838 325.692 101.129 328.653 101.394 334.568C101.973 347.46 102.39 360.87 100.388 373.691C100.313 374.151 100.106 374.381 99.7677 374.381ZM82.5327 396.927L45.5528 341.542C45.5453 341.531 45.5401 341.518 45.5375 341.505C45.535 341.491 45.5351 341.478 45.538 341.464C45.5408 341.451 45.5462 341.439 45.554 341.427C45.5618 341.416 45.5717 341.407 45.5832 341.4L45.7152 341.308C45.8926 341.19 46.5467 341.789 47.6401 343.071C48.7335 344.354 50.245 346.295 52.0879 348.783C53.9309 351.272 56.0693 354.259 58.3812 357.575C60.6931 360.891 63.1331 364.47 65.5619 368.108L65.6635 368.26C70.5579 375.591 75.1105 382.717 78.3239 388.077C81.5373 393.438 83.1494 396.595 82.807 396.856L82.675 396.948C82.6643 396.956 82.6522 396.962 82.6393 396.965C82.6263 396.968 82.6128 396.969 82.5996 396.967C82.5864 396.965 82.5736 396.961 82.5622 396.954C82.5507 396.947 82.5407 396.938 82.5327 396.927ZM607.199 359.87C607.217 359.841 607.239 359.814 607.265 359.79C607.344 359.714 607.45 359.672 607.56 359.672L720.573 360.088C720.588 360.088 720.604 360.089 720.619 360.091C720.64 360.093 720.66 360.097 720.681 360.102C720.701 360.107 720.721 360.114 720.741 360.123C720.794 360.145 720.842 360.178 720.882 360.22C720.891 360.23 720.899 360.239 720.908 360.25C720.916 360.26 720.923 360.27 720.931 360.281C720.948 360.308 720.962 360.336 720.973 360.366C720.993 360.42 721.002 360.477 721 360.535L718.266 422.894C718.261 423.004 718.214 423.107 718.134 423.183C718.055 423.259 717.949 423.301 717.839 423.301H604.816C604.758 423.301 604.701 423.289 604.648 423.266C604.595 423.244 604.547 423.21 604.507 423.169C604.467 423.127 604.436 423.077 604.416 423.023C604.395 422.969 604.386 422.912 604.389 422.854L607.133 360.078C607.136 360.004 607.159 359.932 607.199 359.87ZM136.229 382.076C133.56 385.264 130.281 389.605 126.392 395.1C126.375 395.133 126.351 395.163 126.323 395.187C126.31 395.198 126.296 395.207 126.282 395.216C126.275 395.22 126.267 395.224 126.26 395.227C126.249 395.233 126.237 395.237 126.225 395.241C126.189 395.252 126.151 395.256 126.114 395.253C126.076 395.25 126.04 395.239 126.006 395.222C125.973 395.205 125.943 395.181 125.919 395.152C125.895 395.123 125.877 395.09 125.865 395.054C125.854 395.019 125.85 394.981 125.853 394.943C125.855 394.924 125.859 394.904 125.864 394.885C125.869 394.869 125.876 394.852 125.884 394.836C127.788 389.233 130.484 384.35 133.973 380.188C137.462 376.026 141.802 372.514 146.991 369.651C147.052 369.605 147.128 369.585 147.203 369.596C147.279 369.606 147.347 369.646 147.393 369.707C147.399 369.716 147.405 369.725 147.411 369.734C147.417 369.744 147.422 369.754 147.426 369.764C147.447 369.812 147.455 369.866 147.448 369.919C147.437 369.994 147.397 370.062 147.337 370.108C142.608 374.899 138.906 378.888 136.229 382.076ZM840.551 378.3C840.549 378.017 840.659 377.745 840.857 377.543C841.056 377.341 841.326 377.227 841.609 377.224L841.629 377.224C841.912 377.222 842.185 377.332 842.386 377.53C842.588 377.728 842.703 377.998 842.706 378.281L842.961 407.556C842.964 407.839 842.854 408.111 842.655 408.312C842.457 408.514 842.187 408.629 841.904 408.631L841.883 408.631C841.6 408.634 841.328 408.524 841.126 408.326C840.924 408.128 840.81 407.858 840.807 407.575L840.551 378.3ZM832.641 441.177L833.139 416.042C833.149 415.563 833.337 415.104 833.665 414.754C833.993 414.403 834.439 414.186 834.917 414.144L840.303 413.708C840.499 413.69 840.696 413.715 840.882 413.779C841.068 413.843 841.238 413.945 841.382 414.079C841.526 414.213 841.64 414.376 841.717 414.557C841.793 414.737 841.831 414.932 841.827 415.129L841.309 441.421C841.304 441.58 841.236 441.732 841.12 441.842C841.004 441.952 840.849 442.012 840.689 442.009L833.301 441.867C833.278 441.867 833.254 441.865 833.231 441.862C833.194 441.858 833.157 441.85 833.122 441.84C833.096 441.832 833.07 441.823 833.045 441.812C832.965 441.776 832.891 441.725 832.83 441.661C832.769 441.597 832.72 441.521 832.688 441.438C832.656 441.355 832.64 441.266 832.641 441.177ZM71.5678 452.13C71.5188 452.186 71.4498 452.22 71.3758 452.226C71.3017 452.232 71.2284 452.208 71.1714 452.161C60.596 443.627 50.068 436.666 39.5874 431.279C35.2516 429.053 28.9986 426.079 20.8282 422.356C17.7051 420.928 15.0831 419.294 12.9626 417.453C12.8066 417.316 12.6966 417.134 12.6474 416.932C12.5981 416.73 12.612 416.518 12.6874 416.324C12.7627 416.13 12.8958 415.964 13.0686 415.849C13.2414 415.733 13.4458 415.673 13.6538 415.677C13.7148 415.677 14.1787 415.849 15.0459 416.195C30.5262 422.326 45.0514 430.332 58.6213 440.213C61.8935 442.595 66.2089 446.405 71.5678 451.643C71.5778 451.653 71.5872 451.664 71.5959 451.675C71.6056 451.687 71.6144 451.7 71.6223 451.714C71.6512 451.764 71.6674 451.821 71.6687 451.88C71.6706 451.968 71.6381 452.055 71.578 452.12L71.5678 452.13ZM92.1461 517.86C92.1517 517.926 92.1324 517.991 92.0922 518.043C92.052 518.095 91.9937 518.131 91.9288 518.142C91.8638 518.154 91.7969 518.14 91.7412 518.105C91.6855 518.07 91.6451 518.015 91.6278 517.951C85.4188 500.004 73.2851 483.071 55.349 475.194C48.2897 472.095 43.2154 470.132 40.1261 469.306C29.1239 466.376 19.27 463.703 10.5644 461.287C8.83007 460.806 7.30574 460.072 5.99144 459.084C5.83314 458.963 5.71158 458.8 5.64029 458.614C5.56899 458.428 5.5509 458.226 5.58777 458.03C5.62463 457.835 5.71506 457.653 5.84915 457.506C5.98324 457.358 6.15565 457.251 6.34718 457.196C15.7573 454.462 25.5095 453.443 35.6039 454.14C57.9911 455.683 77.6752 478.27 86.9533 496.634C90.3745 503.408 92.1055 510.483 92.1461 517.86ZM577.441 478.996C577.443 478.845 577.504 478.701 577.611 478.596C577.719 478.49 577.864 478.431 578.015 478.433L682.783 479.346C682.934 479.347 683.078 479.408 683.184 479.516C683.29 479.623 683.348 479.768 683.347 479.919L683.347 479.96C683.345 480.111 683.284 480.255 683.177 480.36C683.069 480.466 682.924 480.525 682.773 480.523L578.005 479.61C577.854 479.609 577.71 479.548 577.604 479.44C577.498 479.332 577.44 479.187 577.441 479.037L577.441 478.996ZM317.685 479.518C317.685 479.925 279.543 479.921 203.259 479.508C202.222 479.502 201.708 479.302 201.714 478.909C201.714 478.51 202.233 478.314 203.269 478.321C279.553 478.713 317.691 479.112 317.685 479.518ZM478.267 479.925C478.267 480.013 472.383 480.063 460.615 480.077C436.477 480.111 412.342 480.023 388.21 479.813C386.022 479.799 384.927 479.579 384.927 479.153C384.934 478.727 386.032 478.52 388.22 478.534C412.352 478.73 436.487 479.045 460.625 479.478C472.386 479.688 478.267 479.837 478.267 479.925ZM758.316 479.505C758.316 479.449 758.327 479.393 758.349 479.342C758.371 479.29 758.402 479.243 758.442 479.204C758.482 479.165 758.529 479.133 758.581 479.112C758.594 479.107 758.607 479.102 758.621 479.098C758.661 479.086 758.703 479.08 758.745 479.081L848.536 479.55C848.592 479.551 848.648 479.562 848.699 479.584C848.751 479.605 848.798 479.637 848.837 479.677C848.847 479.687 848.856 479.697 848.865 479.708C848.881 479.728 848.896 479.749 848.908 479.772C848.916 479.786 848.923 479.801 848.929 479.816C848.933 479.825 848.936 479.835 848.94 479.844L848.944 479.857L848.947 479.869C848.956 479.905 848.961 479.942 848.961 479.979L848.961 480.019C848.96 480.075 848.949 480.131 848.927 480.182C848.905 480.234 848.874 480.281 848.834 480.32C848.794 480.36 848.747 480.391 848.695 480.412C848.643 480.433 848.588 480.444 848.532 480.444L758.74 479.974C758.705 479.974 758.67 479.969 758.636 479.961C758.616 479.955 758.596 479.949 758.577 479.941C758.561 479.934 758.546 479.927 758.532 479.919C758.498 479.899 758.467 479.875 758.439 479.848C758.4 479.808 758.368 479.761 758.347 479.709C758.326 479.657 758.315 479.601 758.315 479.545L758.316 479.505ZM104.758 507.333C104.712 507.333 104.663 507.06 104.615 506.527C104.567 505.995 104.521 505.215 104.48 504.231C104.438 503.247 104.402 502.079 104.373 500.794C104.344 499.508 104.322 498.13 104.31 496.738C104.298 495.347 104.295 493.968 104.302 492.682C104.309 491.396 104.324 490.228 104.349 489.244C104.373 488.259 104.406 487.478 104.444 486.945C104.483 486.412 104.527 486.138 104.573 486.138C104.62 486.137 104.669 486.411 104.716 486.943C104.764 487.475 104.81 488.255 104.852 489.239C104.894 490.223 104.93 491.391 104.959 492.677C104.988 493.962 105.009 495.34 105.021 496.732C105.034 498.124 105.037 499.502 105.03 500.788C105.023 502.074 105.007 503.242 104.983 504.227C104.958 505.211 104.926 505.992 104.887 506.525C104.849 507.058 104.805 507.332 104.758 507.333ZM227.77 549.654C218.841 550.229 213.296 550.534 211.135 550.568C200.065 550.75 162.143 550.95 97.3695 551.167C92.3918 551.179 87.2614 551.275 82.0756 551.371L82.0688 551.371C74.9231 551.504 67.6727 551.639 60.5723 551.562C50.7632 551.462 40.4984 551.523 30.2629 551.584C20.7435 551.64 11.2494 551.697 2.17056 551.623C2.07623 551.623 1.98581 551.586 1.9191 551.519C1.90834 551.508 1.89834 551.497 1.8891 551.485C1.88193 551.476 1.87529 551.466 1.8691 551.456C1.85857 551.44 1.84948 551.422 1.84193 551.404C1.82422 551.361 1.81483 551.315 1.81483 551.268V551.258C1.81483 551.25 1.81506 551.243 1.81551 551.235C1.81643 551.22 1.81826 551.205 1.82101 551.19C1.82345 551.177 1.82666 551.163 1.83055 551.15C1.83429 551.138 1.83857 551.126 1.84353 551.114C1.85193 551.094 1.862 551.075 1.87361 551.056C1.88834 551.033 1.90559 551.012 1.92506 550.992C1.94483 550.973 1.96666 550.955 1.99018 550.94C2.00819 550.929 2.02712 550.919 2.04689 550.911C2.09251 550.892 2.14149 550.882 2.19087 550.882C15.6238 550.806 27.9252 550.625 40.0863 550.446H40.092H40.0966H40.1H40.1032C57.045 550.197 73.7159 549.952 92.7965 549.999C133.946 550.101 178.677 549.877 226.988 549.329C227.109 549.329 227.229 549.309 227.343 549.268C227.526 549.207 227.695 549.231 227.851 549.339C227.881 549.359 227.903 549.388 227.916 549.421C227.929 549.454 227.93 549.491 227.922 549.525C227.913 549.56 227.893 549.591 227.866 549.614C227.839 549.637 227.805 549.651 227.77 549.654Z" fill="black"/>
</g>
<g opacity="0.25">
<path fill-rule="evenodd" clip-rule="evenodd" d="M915 690.595V701H1988L1977.37 690.037H1852.54C1852.48 690.037 1852.42 690.013 1852.38 689.971C1852.34 689.929 1852.32 689.872 1852.32 689.813V484.168C1852.31 484.096 1852.33 484.025 1852.36 483.959C1852.39 483.892 1852.43 483.833 1852.48 483.783C1852.54 483.734 1852.6 483.696 1852.67 483.671C1852.74 483.646 1852.81 483.636 1852.88 483.64C1858.54 483.978 1864.75 484.29 1871.51 484.574C1876.34 484.767 1876.26 479.62 1876.68 475.143C1876.78 474.108 1877.39 465.899 1878.52 450.516C1878.69 448.323 1878.65 446.236 1878.4 444.253C1878.34 443.712 1878.08 443.214 1877.67 442.853C1877.26 442.491 1876.74 442.293 1876.2 442.294H1841.24C1841.13 442.294 1841.02 442.272 1840.92 442.229C1840.82 442.186 1840.73 442.124 1840.65 442.045C1840.58 441.966 1840.52 441.873 1840.48 441.771C1840.44 441.669 1840.42 441.56 1840.43 441.451L1841.33 412.723C1841.34 412.457 1841.27 412.192 1841.14 411.958C1841.01 411.724 1840.82 411.529 1840.59 411.393C1839.61 410.838 1838.53 410.473 1837.34 410.297C1833.8 409.789 1830.21 409.339 1826.55 408.947C1826.47 408.939 1826.4 408.912 1826.33 408.869C1826.26 408.826 1826.2 408.767 1826.16 408.698C1826.12 408.628 1826.1 408.55 1826.09 408.47C1826.09 408.39 1826.1 408.309 1826.14 408.236L1833.74 390.989C1833.87 390.688 1833.94 390.364 1833.94 390.035C1833.94 389.707 1833.88 389.382 1833.75 389.08C1833.62 388.778 1833.43 388.506 1833.19 388.281C1832.95 388.056 1832.67 387.882 1832.36 387.771L1831.69 387.537C1831.38 387.426 1831.05 387.377 1830.72 387.392C1830.4 387.407 1830.07 387.487 1829.78 387.627C1829.48 387.766 1829.22 387.963 1829 388.205C1828.78 388.448 1828.61 388.732 1828.5 389.04L1821.89 407.333C1821.8 407.574 1821.65 407.787 1821.45 407.949C1821.25 408.11 1821.01 408.213 1820.75 408.246L1820.01 408.348C1819.91 408.362 1819.81 408.35 1819.71 408.313C1819.62 408.276 1819.53 408.215 1819.47 408.135C1819.4 408.056 1819.36 407.961 1819.34 407.86C1819.32 407.759 1819.33 407.654 1819.36 407.556C1822.01 399.489 1825.55 390.64 1829.99 381.01C1830.35 380.229 1830.44 379.35 1830.25 378.511C1830.06 377.671 1829.59 376.919 1828.92 376.371L1828.78 376.269C1828.5 376.041 1828.17 375.884 1827.81 375.81C1827.46 375.736 1827.09 375.749 1826.74 375.846C1826.39 375.943 1826.07 376.123 1825.81 376.37C1825.54 376.616 1825.34 376.923 1825.21 377.264L1814.27 407.627C1814.18 407.878 1814.01 408.095 1813.8 408.251C1813.58 408.407 1813.32 408.494 1813.05 408.5L1811.06 408.541C1810.9 408.543 1810.74 408.514 1810.6 408.455C1810.45 408.395 1810.32 408.307 1810.21 408.195C1810.1 408.083 1810.01 407.949 1809.96 407.803C1809.9 407.656 1809.87 407.5 1809.88 407.343L1811.21 361.042C1811.23 360.33 1810.98 359.636 1810.52 359.094C1810.05 358.552 1809.41 358.201 1808.7 358.109L1808.55 358.088C1808.19 358.032 1807.83 358.052 1807.48 358.146C1807.14 358.241 1806.81 358.408 1806.54 358.636C1806.26 358.865 1806.04 359.15 1805.88 359.472C1805.72 359.794 1805.63 360.146 1805.62 360.504L1805.31 370.067C1805.3 370.179 1805.27 370.288 1805.21 370.383C1805.15 370.479 1805.07 370.557 1804.97 370.611C1804.87 370.666 1804.76 370.693 1804.65 370.692C1804.54 370.691 1804.43 370.661 1804.33 370.605C1803.02 369.854 1801.57 369.553 1799.97 369.702C1799.48 369.746 1799.02 369.976 1798.7 370.344C1798.37 370.713 1798.2 371.191 1798.22 371.681L1799.56 408.206C1799.57 408.301 1799.55 408.395 1799.52 408.484C1799.49 408.574 1799.44 408.655 1799.37 408.724C1799.3 408.793 1799.23 408.849 1799.14 408.887C1799.05 408.925 1798.96 408.945 1798.86 408.947C1795.12 409.018 1791.1 408.469 1790.9 413.718C1790.56 422.312 1790.48 431.581 1790.65 441.522C1790.65 441.602 1790.64 441.681 1790.61 441.754C1790.58 441.828 1790.54 441.896 1790.48 441.952C1790.42 442.009 1790.36 442.054 1790.28 442.085C1790.21 442.115 1790.13 442.131 1790.05 442.131H1639.99C1639.73 442.131 1639.48 442.054 1639.26 441.909C1639.05 441.764 1638.88 441.559 1638.79 441.319L1634.39 430.437C1634.36 430.369 1634.35 430.296 1634.36 430.224C1634.37 430.152 1634.39 430.083 1634.44 430.022C1634.48 429.962 1634.53 429.913 1634.6 429.879C1634.66 429.845 1634.73 429.828 1634.8 429.828C1653 429.99 1669.99 430.068 1685.77 430.061C1687.9 430.061 1689.03 428.847 1689.14 426.417C1690.47 398.487 1691.43 375.579 1692.03 357.693C1692.14 354.109 1689.31 353.845 1686.32 353.855C1625.19 354.052 1585.39 354.126 1566.9 354.079C1563.2 354.079 1562.62 356.007 1562.5 359.418C1561.4 390.299 1560.68 411.616 1560.34 423.372C1560.23 426.955 1560.85 429.706 1564.88 429.706C1576 429.72 1587.73 429.777 1600.07 429.879C1600.15 429.879 1600.22 429.897 1600.29 429.931C1600.36 429.965 1600.42 430.015 1600.46 430.075C1600.51 430.136 1600.54 430.207 1600.56 430.282C1600.57 430.357 1600.57 430.434 1600.55 430.508L1597.8 441.197C1597.76 441.352 1597.67 441.488 1597.55 441.585C1597.42 441.683 1597.27 441.735 1597.11 441.735H1480.83C1480.76 441.735 1480.7 441.722 1480.64 441.697C1480.58 441.672 1480.52 441.635 1480.48 441.589C1480.43 441.543 1480.4 441.488 1480.37 441.427C1480.35 441.367 1480.34 441.303 1480.34 441.238C1480.41 435.641 1480.18 429.956 1479.67 424.184C1479.47 421.971 1478.85 420.089 1477.8 418.54C1477.68 418.364 1477.6 418.164 1477.56 417.954C1477.53 417.743 1477.54 417.528 1477.6 417.321C1479.01 412.083 1480.56 406.818 1482.23 401.526C1482.77 399.821 1482.79 398.2 1482.29 396.663C1482.24 396.501 1482.15 396.352 1482.04 396.228C1481.93 396.103 1481.79 396.006 1481.63 395.943C1479.4 395.009 1478.06 395.78 1477.47 397.78C1475.88 403.187 1474.11 409.62 1472.17 417.078C1472.15 417.144 1472.11 417.204 1472.06 417.25C1472.01 417.296 1471.95 417.327 1471.88 417.338C1471.81 417.35 1471.74 417.342 1471.68 417.316C1471.61 417.289 1471.56 417.246 1471.52 417.189L1471.49 417.159C1471.33 417.019 1471.22 416.842 1471.15 416.645C1471.09 416.447 1471.07 416.236 1471.11 416.032L1477 386.39C1477.09 385.923 1477.08 385.441 1476.98 384.976C1476.88 384.511 1476.68 384.072 1476.39 383.688C1476.11 383.303 1475.75 382.981 1475.34 382.742C1474.92 382.503 1474.46 382.352 1473.99 382.299L1473.69 382.259C1473.18 382.199 1472.65 382.243 1472.15 382.387C1471.65 382.53 1471.18 382.771 1470.78 383.096C1470.37 383.42 1470.03 383.822 1469.78 384.277C1469.53 384.733 1469.37 385.234 1469.31 385.751L1465.76 417.159C1465.74 417.365 1465.64 417.556 1465.49 417.698C1465.34 417.839 1465.14 417.922 1464.93 417.93H1464.9C1464.69 417.924 1464.48 417.84 1464.33 417.693C1464.17 417.547 1464.08 417.35 1464.06 417.139L1461.35 384.857C1461.26 383.832 1460.78 382.879 1460.01 382.198C1459.24 381.516 1458.23 381.16 1457.2 381.203H1457.15C1456.67 381.228 1456.19 381.354 1455.76 381.571C1455.32 381.788 1454.94 382.092 1454.63 382.465C1454.32 382.838 1454.08 383.27 1453.95 383.736C1453.81 384.202 1453.78 384.691 1453.84 385.172L1458.07 417.585C1458.09 417.664 1458.08 417.743 1458.06 417.819C1458.03 417.894 1458 417.964 1457.95 418.024C1457.89 418.083 1457.83 418.131 1457.76 418.164C1457.69 418.197 1457.61 418.214 1457.54 418.215L1450.53 418.357C1450.04 418.366 1449.57 418.549 1449.19 418.874C1448.82 419.199 1448.58 419.645 1448.5 420.133C1447.43 427.192 1446.93 434.274 1446.99 441.38C1446.99 441.472 1446.95 441.559 1446.89 441.624C1446.82 441.689 1446.73 441.725 1446.64 441.725H1386.28C1386.09 441.725 1385.91 441.652 1385.77 441.521C1385.64 441.39 1385.56 441.211 1385.56 441.025L1385.39 432.406C1385.38 432.325 1385.4 432.245 1385.43 432.17C1385.46 432.095 1385.5 432.027 1385.56 431.969C1385.62 431.911 1385.68 431.866 1385.76 431.834C1385.83 431.803 1385.91 431.787 1385.99 431.787C1391.26 431.74 1404.48 431.709 1425.65 431.696C1427.7 431.696 1429.56 431.479 1431.23 431.046C1431.69 430.924 1432.11 430.652 1432.4 430.273C1432.7 429.893 1432.87 429.427 1432.87 428.945C1433.49 379.339 1434.24 338.06 1435.14 305.109C1435.21 302.679 1434.07 301.441 1431.72 301.393C1428.05 301.326 1424.25 301.383 1420.31 301.566C1358.08 304.449 1298.89 307.802 1242.73 311.626C1237.68 311.971 1238.66 314.884 1238.84 318.975C1239.03 323.523 1239.32 328.457 1239.71 333.776C1241.74 360.887 1243.73 388.725 1245.69 417.291C1245.89 420.228 1246.17 423.175 1246.54 426.133C1247.14 431.005 1251.13 430.833 1255.24 430.833C1267.91 430.853 1296.94 431.022 1342.32 431.34C1342.37 431.341 1342.43 431.354 1342.48 431.376C1342.52 431.399 1342.57 431.432 1342.6 431.472C1342.64 431.512 1342.67 431.559 1342.68 431.61C1342.7 431.661 1342.7 431.714 1342.69 431.767L1341.64 441.157C1341.62 441.25 1341.58 441.335 1341.51 441.397C1341.44 441.459 1341.35 441.492 1341.25 441.492H1247.09C1246.89 441.492 1246.69 441.43 1246.53 441.313C1246.36 441.197 1246.24 441.032 1246.17 440.842C1242.95 431.814 1238.59 422.238 1233.1 412.114C1233.06 412.048 1233.04 411.974 1233.03 411.899C1233.03 411.824 1233.05 411.749 1233.08 411.68C1233.11 411.611 1233.15 411.551 1233.21 411.502C1233.27 411.454 1233.34 411.42 1233.41 411.403C1239.81 409.951 1240.79 402.399 1240.39 396.988C1240.1 392.857 1237.8 388.928 1233.28 388.431C1231.61 388.248 1229.91 388.153 1228.17 388.146C1227.86 388.146 1227.57 388.043 1227.33 387.856C1227.1 387.668 1226.93 387.406 1226.86 387.111L1190.95 238.567C1190.8 237.947 1190.8 237.3 1190.95 236.679C1191.09 236.058 1191.38 235.481 1191.8 234.994C1196.02 229.986 1201.55 222.886 1208.39 213.696C1216.06 203.389 1224.87 191.387 1234.83 177.689C1246.34 161.843 1254.96 150.596 1265.49 136.993C1273.28 126.943 1279.08 119.214 1282.89 113.807C1283.11 113.493 1283.42 113.25 1283.78 113.108C1284.15 112.965 1284.54 112.93 1284.92 113.005L1301.2 116.223C1301.24 116.23 1301.28 116.249 1301.31 116.278C1301.34 116.307 1301.36 116.345 1301.37 116.386C1301.38 116.427 1301.37 116.47 1301.36 116.508C1301.34 116.546 1301.31 116.578 1301.27 116.599C1294.56 120.994 1289.37 128.212 1285.17 135.064C1270.16 159.508 1264.23 189.638 1265.02 218.061C1265.12 221.289 1275.47 222.974 1278.07 223.37C1301.07 226.91 1324.36 227.532 1347.93 225.238C1357.09 224.345 1367.58 222.558 1376.29 218.376C1376.78 218.137 1377.19 217.753 1377.46 217.276C1377.73 216.799 1377.85 216.251 1377.79 215.706C1377.14 208.58 1376.03 201.707 1374.45 195.089C1370.65 179.117 1365.61 164.263 1359.33 150.524C1351.3 132.983 1339.57 114.376 1318.16 112.934C1317.85 112.914 1317.55 112.776 1317.33 112.547C1317.11 112.318 1316.98 112.014 1316.97 111.696L1316.31 77.4147C1316.29 76.4767 1315.91 75.5834 1315.24 74.9266C1314.57 74.2699 1313.67 73.9021 1312.73 73.9023H1312.21C1311.27 73.9023 1310.37 74.2734 1309.71 74.934C1309.04 75.5946 1308.67 76.4906 1308.67 77.4248V107.209C1308.67 107.236 1308.67 107.262 1308.65 107.287C1308.64 107.311 1308.63 107.333 1308.61 107.35C1308.58 107.368 1308.56 107.38 1308.53 107.388C1308.5 107.395 1308.48 107.396 1308.45 107.392C1296.19 105.212 1286.9 103.5 1280.58 102.255C1279.78 102.093 1278.51 102.492 1276.77 103.453C1276.49 103.607 1276.24 103.806 1276.02 104.042C1274.86 105.3 1272.82 107.706 1269.88 111.259C1265.13 117.005 1257.43 126.642 1246.79 140.17C1229.69 161.935 1209.34 190.977 1195.68 208.864C1193.85 211.267 1192.52 212.935 1191.69 213.869C1191.59 213.99 1191.45 214.076 1191.29 214.112C1191.13 214.148 1190.96 214.134 1190.81 214.072C1184.71 211.625 1176.87 212.478 1173.84 219.005C1172.15 222.673 1171.8 226.521 1172.79 230.547C1178.29 252.772 1183.76 274.851 1189.2 296.785C1197.93 331.908 1206.78 368.443 1216.49 409.657C1216.55 409.911 1216.55 410.175 1216.5 410.429C1216.45 410.683 1216.34 410.922 1216.19 411.129C1214.36 413.559 1212.73 416.469 1211.28 419.859C1208.38 426.606 1206.51 433.679 1205.66 441.075C1205.64 441.214 1205.58 441.341 1205.48 441.435C1205.38 441.528 1205.25 441.581 1205.11 441.583C1202.81 441.61 1188.17 441.59 1161.17 441.522C1155.34 441.502 1155.1 444.689 1155.27 449.674C1155.59 459.101 1156.05 468.941 1156.65 479.194C1156.79 481.623 1158.2 483.004 1160.89 483.335C1164.71 483.802 1169.58 484.036 1175.5 484.036C1175.73 484.036 1175.96 484.128 1176.13 484.293C1176.3 484.458 1176.4 484.683 1176.4 484.919L1177.16 524.235C1177.16 524.311 1177.15 524.387 1177.12 524.457C1177.09 524.528 1177.05 524.593 1177 524.647C1176.95 524.702 1176.88 524.746 1176.81 524.776C1176.74 524.806 1176.67 524.823 1176.59 524.824L1075.4 526.783C1075.33 526.784 1075.27 526.769 1075.21 526.74C1075.15 526.712 1075.1 526.67 1075.06 526.618C1075.02 526.565 1074.99 526.505 1074.98 526.44C1074.96 526.375 1074.97 526.309 1074.98 526.245C1076.21 521.968 1077.75 517.694 1079.6 513.424C1082.18 507.424 1086.88 504.369 1093.03 500.938C1109.22 491.903 1126.65 483.609 1145.32 476.057C1146.5 475.576 1147.6 474.927 1148.64 474.108C1151.36 471.946 1149.95 469.184 1147.19 468.24C1140.39 465.906 1133.03 465.53 1125.43 465.601C1110.69 465.743 1098.09 470.748 1085.9 479.407C1085.83 479.457 1085.74 479.482 1085.66 479.478C1085.57 479.474 1085.49 479.441 1085.42 479.385C1085.36 479.329 1085.31 479.253 1085.29 479.169C1085.28 479.084 1085.29 478.996 1085.33 478.92C1087.12 475.346 1088.91 471.083 1090.6 468.078C1097.53 455.687 1105.59 444.216 1114.78 433.665C1120.52 427.073 1127.87 420.465 1136.83 413.839C1137.24 413.535 1138.22 412.588 1139.79 410.997C1140.04 410.737 1140.23 410.42 1140.34 410.073C1140.66 408.963 1140.59 407.813 1140.11 406.622C1139.97 406.285 1139.74 405.998 1139.44 405.8C1138.43 405.123 1136.97 404.7 1135.05 404.531C1121.42 403.292 1105.92 407.231 1096.74 417.646C1096.7 417.7 1096.64 417.735 1096.57 417.744C1096.5 417.754 1096.43 417.738 1096.38 417.699C1096.32 417.66 1096.28 417.601 1096.26 417.533C1096.24 417.465 1096.25 417.394 1096.28 417.332C1104.76 401.062 1112.82 383.602 1120.47 364.951C1120.94 363.793 1120.89 362.552 1120.32 361.225C1120.17 360.888 1119.93 360.598 1119.63 360.387C1119.33 360.176 1118.97 360.051 1118.6 360.027C1116.87 359.912 1115.05 360.22 1113.14 360.951C1103.98 364.45 1096.16 370.006 1089.68 377.62C1089.64 377.66 1089.59 377.687 1089.54 377.698C1089.49 377.708 1089.43 377.701 1089.38 377.678C1089.33 377.654 1089.3 377.616 1089.27 377.569C1089.25 377.521 1089.25 377.468 1089.26 377.417C1090.49 371.928 1091.5 365.756 1092.29 358.901C1092.51 356.952 1092.47 355.544 1092.16 354.678C1092.04 354.35 1091.85 354.059 1091.6 353.825C1090.21 352.512 1088.76 352.59 1087.24 354.058C1082.66 358.478 1078.82 363.31 1075.72 368.554C1075.69 368.604 1075.65 368.644 1075.59 368.667C1075.54 368.69 1075.48 368.695 1075.42 368.683C1075.36 368.671 1075.31 368.642 1075.26 368.599C1075.22 368.556 1075.2 368.502 1075.19 368.443C1072.86 350.766 1070.86 336.253 1069.19 324.904C1068.9 322.867 1068.32 320.089 1067.45 316.57C1066.87 314.235 1065.76 312.793 1063.52 312.753C1062.97 312.741 1062.43 312.922 1061.97 313.268C1061.52 313.615 1061.18 314.107 1061.01 314.671C1053.85 337.918 1050.19 362.21 1050.62 386.076C1050.69 389.574 1051.09 393.121 1051.83 396.714C1051.84 396.737 1051.84 396.762 1051.82 396.783C1051.81 396.805 1051.79 396.822 1051.77 396.83C1051.75 396.838 1051.73 396.837 1051.71 396.826C1051.69 396.816 1051.68 396.798 1051.67 396.775C1048.33 389.811 1044.84 383.365 1041.2 377.437C1030.8 360.464 1018.65 342.943 1005.5 328.893C1004.26 327.574 1001.95 325.543 1000.28 326.081C999.677 326.275 999.152 326.665 998.781 327.194C998.409 327.724 998.212 328.365 998.218 329.025C998.238 330.778 998.597 332.541 999.295 334.314C1009.37 359.929 1021.11 383.984 1034.51 406.48C1038.31 412.865 1041 417.981 1045.03 424.478C1045.07 424.53 1045.08 424.591 1045.07 424.651C1045.06 424.711 1045.02 424.764 1044.98 424.801C1044.93 424.838 1044.87 424.856 1044.81 424.85C1044.75 424.845 1044.69 424.817 1044.65 424.772C1036.9 416.821 1028.1 409.806 1018.25 403.729C1005.12 395.614 992.002 387.998 978.879 380.878C977.457 380.107 974.418 380.228 974.52 382.543C974.657 385.463 979.749 389.632 982.515 391.897L982.832 392.156C984.763 393.747 989.905 397.746 998.258 404.155C1005.62 409.799 1013.83 416.814 1022.91 425.199C1029.31 431.114 1035.08 437.367 1040.21 443.958C1042.47 446.855 1044.33 449.833 1045.78 452.892C1045.81 452.964 1045.82 453.048 1045.8 453.127C1045.78 453.205 1045.73 453.274 1045.67 453.32C1045.6 453.366 1045.52 453.386 1045.44 453.377C1045.36 453.367 1045.28 453.328 1045.23 453.267C1027.16 434.548 1005.53 419.758 980.597 410.337C976.511 408.794 972.182 407.745 967.609 407.19C965.028 406.876 964.357 409.403 965.292 411.444C967.62 416.54 971.044 421.727 975.058 426.244C982.036 434.095 989.688 441.163 998.014 447.45C998.061 447.484 998.095 447.532 998.112 447.587C998.129 447.641 998.128 447.7 998.108 447.754C998.089 447.808 998.052 447.854 998.004 447.885C997.956 447.917 997.899 447.931 997.842 447.928C980.268 446.581 963.582 449.268 947.783 455.988C947.322 456.184 946.133 456.932 944.216 458.231C937.641 462.667 944.389 467.428 948.992 468.129C967.664 471.005 985.905 475.522 1003.72 481.681C1008.84 483.454 1013.8 485.514 1018.59 487.863C1034.97 495.882 1045.64 508.717 1050.61 526.367C1050.64 526.454 1050.64 526.546 1050.63 526.635C1050.61 526.725 1050.57 526.809 1050.52 526.883C1050.46 526.956 1050.39 527.016 1050.31 527.059C1050.23 527.101 1050.14 527.125 1050.04 527.128L958.555 529.29C958.501 529.29 958.45 529.297 958.403 529.311C953.145 530.542 950.927 533.838 951.746 539.198C952.397 543.482 954.006 548.344 956.573 553.786C958.179 557.207 960.374 557.044 963.646 557.42C963.805 557.438 963.953 557.507 964.069 557.617C964.184 557.727 964.261 557.871 964.286 558.029C971.251 602.376 979.557 646.423 989.204 690.168C989.213 690.211 989.212 690.255 989.202 690.297C989.192 690.34 989.173 690.379 989.146 690.413C989.119 690.447 989.084 690.475 989.045 690.494C989.006 690.513 988.963 690.523 988.919 690.524L915 690.595ZM1245.58 318.925L1254.25 423.372C1254.27 423.532 1254.34 423.682 1254.46 423.791C1254.58 423.901 1254.73 423.961 1254.89 423.96H1425.98C1426.11 423.96 1426.23 423.911 1426.32 423.824C1426.41 423.737 1426.46 423.618 1426.46 423.493L1428.76 307.312C1428.76 307.218 1428.74 307.126 1428.71 307.039C1428.67 306.953 1428.62 306.874 1428.55 306.809C1428.49 306.744 1428.41 306.694 1428.32 306.662C1428.23 306.629 1428.14 306.616 1428.05 306.621C1375.44 309.352 1308.14 313.067 1246.66 317.676C1246.51 317.686 1246.36 317.727 1246.22 317.795C1246.08 317.864 1245.96 317.959 1245.86 318.075C1245.76 318.191 1245.69 318.326 1245.64 318.472C1245.59 318.618 1245.57 318.772 1245.58 318.925ZM1062.17 373.671C1062.22 374.138 1062.42 374.375 1062.77 374.381C1063.11 374.381 1063.31 374.151 1063.39 373.691C1065.39 360.87 1064.97 347.46 1064.39 334.568C1064.13 328.653 1063.84 325.692 1063.52 325.685C1063.21 325.679 1062.83 328.629 1062.37 334.537C1061.4 347.409 1060.56 360.799 1062.17 373.671ZM1008.55 341.542L1045.53 396.927C1045.54 396.938 1045.55 396.947 1045.56 396.954C1045.57 396.961 1045.59 396.965 1045.6 396.967C1045.61 396.969 1045.63 396.968 1045.64 396.965C1045.65 396.962 1045.66 396.956 1045.67 396.948L1045.81 396.856C1046.15 396.595 1044.54 393.438 1041.32 388.077C1038.11 382.717 1033.56 375.591 1028.66 368.26L1028.56 368.108C1026.13 364.47 1023.69 360.891 1021.38 357.575C1019.07 354.259 1016.93 351.272 1015.09 348.783C1013.24 346.295 1011.73 344.354 1010.64 343.071C1009.55 341.789 1008.89 341.19 1008.72 341.308L1008.58 341.4C1008.57 341.407 1008.56 341.416 1008.55 341.427C1008.55 341.439 1008.54 341.451 1008.54 341.464C1008.54 341.478 1008.53 341.491 1008.54 341.505C1008.54 341.518 1008.55 341.531 1008.55 341.542ZM1570.26 359.79C1570.24 359.814 1570.22 359.841 1570.2 359.87C1570.16 359.932 1570.14 360.004 1570.13 360.078L1567.39 422.854C1567.39 422.912 1567.4 422.969 1567.42 423.023C1567.44 423.077 1567.47 423.127 1567.51 423.169C1567.55 423.21 1567.59 423.244 1567.65 423.266C1567.7 423.289 1567.76 423.301 1567.82 423.301H1680.84C1680.95 423.301 1681.05 423.259 1681.13 423.183C1681.21 423.107 1681.26 423.004 1681.27 422.894L1684 360.535C1684 360.477 1683.99 360.42 1683.97 360.366C1683.96 360.336 1683.95 360.308 1683.93 360.281C1683.92 360.27 1683.92 360.26 1683.91 360.25C1683.9 360.239 1683.89 360.23 1683.88 360.22C1683.84 360.178 1683.79 360.145 1683.74 360.123C1683.72 360.114 1683.7 360.107 1683.68 360.102C1683.66 360.097 1683.64 360.093 1683.62 360.091C1683.6 360.089 1683.59 360.088 1683.57 360.088L1570.56 359.672C1570.45 359.672 1570.34 359.714 1570.26 359.79ZM1089.39 395.1C1093.28 389.605 1096.56 385.264 1099.23 382.076C1101.91 378.888 1105.61 374.899 1110.34 370.108C1110.4 370.062 1110.44 369.994 1110.45 369.919C1110.46 369.866 1110.45 369.812 1110.43 369.764C1110.42 369.754 1110.42 369.744 1110.41 369.734C1110.41 369.725 1110.4 369.716 1110.39 369.707C1110.35 369.646 1110.28 369.606 1110.2 369.596C1110.13 369.585 1110.05 369.605 1109.99 369.651C1104.8 372.514 1100.46 376.026 1096.97 380.188C1093.48 384.35 1090.79 389.233 1088.88 394.836C1088.88 394.852 1088.87 394.869 1088.86 394.885C1088.86 394.904 1088.85 394.924 1088.85 394.943C1088.85 394.981 1088.85 395.019 1088.87 395.054C1088.88 395.09 1088.89 395.123 1088.92 395.152C1088.94 395.181 1088.97 395.205 1089.01 395.222C1089.04 395.239 1089.08 395.25 1089.11 395.253C1089.15 395.256 1089.19 395.252 1089.22 395.241C1089.24 395.237 1089.25 395.233 1089.26 395.227C1089.27 395.224 1089.27 395.22 1089.28 395.216C1089.3 395.207 1089.31 395.198 1089.32 395.187C1089.35 395.163 1089.38 395.133 1089.39 395.1ZM1803.86 377.543C1803.66 377.745 1803.55 378.017 1803.55 378.3L1803.81 407.575C1803.81 407.858 1803.92 408.128 1804.13 408.326C1804.33 408.524 1804.6 408.634 1804.88 408.631L1804.9 408.631C1805.19 408.629 1805.46 408.514 1805.66 408.312C1805.85 408.111 1805.96 407.839 1805.96 407.556L1805.71 378.281C1805.7 377.998 1805.59 377.728 1805.39 377.53C1805.18 377.332 1804.91 377.222 1804.63 377.224L1804.61 377.224C1804.33 377.227 1804.06 377.341 1803.86 377.543ZM1796.14 416.042L1795.64 441.177C1795.64 441.266 1795.66 441.355 1795.69 441.438C1795.72 441.521 1795.77 441.597 1795.83 441.661C1795.89 441.725 1795.96 441.776 1796.05 441.812C1796.07 441.823 1796.1 441.832 1796.12 441.84C1796.16 441.85 1796.19 441.858 1796.23 441.862C1796.25 441.865 1796.28 441.867 1796.3 441.867L1803.69 442.009C1803.85 442.012 1804 441.952 1804.12 441.842C1804.24 441.732 1804.3 441.58 1804.31 441.421L1804.83 415.129C1804.83 414.932 1804.79 414.737 1804.72 414.557C1804.64 414.376 1804.53 414.213 1804.38 414.079C1804.24 413.945 1804.07 413.843 1803.88 413.779C1803.7 413.715 1803.5 413.69 1803.3 413.708L1797.92 414.144C1797.44 414.186 1796.99 414.403 1796.66 414.754C1796.34 415.104 1796.15 415.563 1796.14 416.042ZM1034.38 452.226C1034.45 452.22 1034.52 452.186 1034.57 452.13L1034.58 452.12C1034.64 452.055 1034.67 451.968 1034.67 451.88C1034.67 451.821 1034.65 451.764 1034.62 451.714C1034.61 451.7 1034.61 451.687 1034.6 451.675C1034.59 451.664 1034.58 451.653 1034.57 451.643C1029.21 446.405 1024.89 442.595 1021.62 440.213C1008.05 430.332 993.526 422.326 978.046 416.195C977.179 415.849 976.715 415.677 976.654 415.677C976.446 415.673 976.241 415.733 976.069 415.849C975.896 415.964 975.763 416.13 975.687 416.324C975.612 416.518 975.598 416.73 975.647 416.932C975.697 417.134 975.807 417.316 975.963 417.453C978.083 419.294 980.705 420.928 983.828 422.356C991.999 426.079 998.252 429.053 1002.59 431.279C1013.07 436.666 1023.6 443.627 1034.17 452.161C1034.23 452.208 1034.3 452.232 1034.38 452.226ZM1055.09 518.043C1055.13 517.991 1055.15 517.926 1055.15 517.86C1055.11 510.483 1053.37 503.408 1049.95 496.634C1040.68 478.27 1020.99 455.683 998.604 454.14C988.51 453.443 978.757 454.462 969.347 457.196C969.156 457.251 968.983 457.358 968.849 457.506C968.715 457.653 968.625 457.835 968.588 458.03C968.551 458.226 968.569 458.428 968.64 458.614C968.712 458.8 968.833 458.963 968.991 459.084C970.306 460.072 971.83 460.806 973.564 461.287C982.27 463.703 992.124 466.376 1003.13 469.306C1006.22 470.132 1011.29 472.095 1018.35 475.194C1036.29 483.071 1048.42 500.004 1054.63 517.951C1054.65 518.015 1054.69 518.07 1054.74 518.105C1054.8 518.14 1054.86 518.154 1054.93 518.142C1054.99 518.131 1055.05 518.095 1055.09 518.043ZM1540.61 478.596C1540.5 478.701 1540.44 478.845 1540.44 478.996L1540.44 479.037C1540.44 479.187 1540.5 479.332 1540.6 479.44C1540.71 479.548 1540.85 479.609 1541.01 479.61L1645.77 480.523C1645.92 480.525 1646.07 480.466 1646.18 480.36C1646.28 480.255 1646.35 480.111 1646.35 479.96L1646.35 479.919C1646.35 479.768 1646.29 479.623 1646.18 479.516C1646.08 479.408 1645.93 479.347 1645.78 479.346L1541.02 478.433C1540.86 478.431 1540.72 478.49 1540.61 478.596ZM1166.26 479.508C1242.54 479.921 1280.68 479.925 1280.68 479.518C1280.69 479.112 1242.55 478.713 1166.27 478.321C1165.23 478.314 1164.71 478.51 1164.71 478.909C1164.71 479.302 1165.22 479.502 1166.26 479.508ZM1423.62 480.077C1435.38 480.063 1441.27 480.013 1441.27 479.925C1441.27 479.837 1435.39 479.688 1423.63 479.478C1399.49 479.045 1375.35 478.73 1351.22 478.534C1349.03 478.52 1347.93 478.727 1347.93 479.153C1347.93 479.579 1349.02 479.799 1351.21 479.813C1375.34 480.023 1399.48 480.111 1423.62 480.077ZM1721.35 479.342C1721.33 479.393 1721.32 479.449 1721.32 479.505L1721.32 479.545C1721.32 479.601 1721.33 479.657 1721.35 479.709C1721.37 479.761 1721.4 479.808 1721.44 479.848C1721.47 479.875 1721.5 479.899 1721.53 479.919C1721.55 479.927 1721.56 479.934 1721.58 479.941C1721.6 479.949 1721.62 479.955 1721.64 479.961C1721.67 479.969 1721.7 479.974 1721.74 479.974L1811.53 480.444C1811.59 480.444 1811.64 480.433 1811.7 480.412C1811.75 480.391 1811.79 480.36 1811.83 480.32C1811.87 480.281 1811.91 480.234 1811.93 480.182C1811.95 480.131 1811.96 480.075 1811.96 480.019L1811.96 479.979C1811.96 479.942 1811.96 479.905 1811.95 479.869C1811.95 479.865 1811.94 479.861 1811.94 479.857C1811.94 479.853 1811.94 479.848 1811.94 479.844C1811.94 479.835 1811.93 479.825 1811.93 479.816C1811.92 479.801 1811.92 479.786 1811.91 479.772C1811.9 479.749 1811.88 479.728 1811.87 479.708C1811.86 479.697 1811.85 479.687 1811.84 479.677C1811.8 479.637 1811.75 479.605 1811.7 479.584C1811.65 479.562 1811.59 479.551 1811.54 479.55L1721.74 479.081C1721.7 479.08 1721.66 479.086 1721.62 479.098C1721.61 479.102 1721.59 479.107 1721.58 479.112C1721.53 479.133 1721.48 479.165 1721.44 479.204C1721.4 479.243 1721.37 479.29 1721.35 479.342ZM1067.62 506.527C1067.66 507.06 1067.71 507.333 1067.76 507.333C1067.81 507.332 1067.85 507.058 1067.89 506.525C1067.93 505.992 1067.96 505.211 1067.98 504.227C1068.01 503.242 1068.02 502.074 1068.03 500.788C1068.04 499.502 1068.03 498.124 1068.02 496.732C1068.01 495.34 1067.99 493.962 1067.96 492.677C1067.93 491.391 1067.89 490.223 1067.85 489.239C1067.81 488.255 1067.76 487.475 1067.72 486.943C1067.67 486.411 1067.62 486.137 1067.57 486.138C1067.53 486.138 1067.48 486.412 1067.44 486.945C1067.41 487.478 1067.37 488.259 1067.35 489.244C1067.32 490.228 1067.31 491.396 1067.3 492.682C1067.3 493.968 1067.3 495.347 1067.31 496.738C1067.32 498.13 1067.34 499.508 1067.37 500.794C1067.4 502.079 1067.44 503.247 1067.48 504.231C1067.52 505.215 1067.57 505.995 1067.62 506.527ZM1196.95 690.575H1758.15C1758.34 690.575 1758.53 690.499 1758.66 690.363C1758.8 690.228 1758.87 690.045 1758.87 689.854V499.76C1758.87 499.583 1758.8 499.412 1758.68 499.287C1758.56 499.161 1758.39 499.09 1758.21 499.09H1197.39C1197.2 499.09 1197.02 499.164 1196.89 499.295C1196.76 499.427 1196.68 499.605 1196.68 499.791V523.189C1196.68 523.583 1196.8 523.969 1197 524.304C1197.21 524.64 1197.51 524.911 1197.86 525.088C1201.19 526.722 1202.31 529.158 1202.54 533.229C1203.02 542.244 1203.16 547.539 1202.96 549.116C1202.57 552.168 1201.1 554.08 1198.55 554.851C1196.95 555.346 1196.24 556.334 1196.43 557.816C1196.57 558.871 1196.63 559.426 1196.63 559.48C1196.52 605.073 1196.43 648.582 1196.38 690.006C1196.38 690.081 1196.39 690.155 1196.42 690.224C1196.45 690.293 1196.49 690.355 1196.55 690.408C1196.6 690.461 1196.66 690.503 1196.73 690.531C1196.8 690.56 1196.87 690.575 1196.95 690.575ZM1816.31 499.678C1816.27 499.786 1816.25 499.902 1816.25 500.019L1815.58 689.239C1815.58 689.356 1815.61 689.472 1815.65 689.581C1815.7 689.689 1815.76 689.788 1815.84 689.871C1815.93 689.955 1816.02 690.021 1816.13 690.066C1816.2 690.095 1816.27 690.115 1816.35 690.126C1816.36 690.128 1816.38 690.13 1816.39 690.131C1816.42 690.134 1816.45 690.135 1816.48 690.135L1835.23 690.201C1835.35 690.201 1835.47 690.178 1835.58 690.134C1835.69 690.089 1835.78 690.024 1835.87 689.941C1835.95 689.858 1836.02 689.76 1836.06 689.652C1836.11 689.544 1836.13 689.428 1836.13 689.31L1836.79 500.091C1836.79 499.974 1836.77 499.857 1836.73 499.749C1836.68 499.64 1836.62 499.542 1836.53 499.458C1836.45 499.375 1836.35 499.309 1836.24 499.264C1836.14 499.219 1836.02 499.195 1835.9 499.195L1817.14 499.129C1817.02 499.129 1816.91 499.152 1816.8 499.196C1816.69 499.241 1816.59 499.306 1816.51 499.389C1816.43 499.471 1816.36 499.57 1816.31 499.678ZM1772.52 689.943C1772.69 690.107 1772.91 690.199 1773.14 690.199H1790.2C1790.44 690.199 1790.66 690.107 1790.82 689.943C1790.99 689.78 1791.08 689.558 1791.08 689.326V499.912C1791.08 499.681 1790.99 499.459 1790.82 499.295C1790.66 499.131 1790.44 499.039 1790.2 499.039H1773.85C1773.62 499.039 1773.4 499.131 1773.24 499.295C1773.07 499.459 1772.98 499.681 1772.98 499.912L1772.27 689.326C1772.27 689.558 1772.36 689.78 1772.52 689.943ZM1174.13 550.568C1176.3 550.534 1181.84 550.229 1190.77 549.654C1190.81 549.651 1190.84 549.637 1190.87 549.614C1190.89 549.591 1190.91 549.56 1190.92 549.525C1190.93 549.491 1190.93 549.454 1190.92 549.421C1190.9 549.388 1190.88 549.359 1190.85 549.339C1190.7 549.231 1190.53 549.207 1190.34 549.268C1190.23 549.309 1190.11 549.329 1189.99 549.329C1141.68 549.877 1096.95 550.101 1055.8 549.999C1036.72 549.952 1020.05 550.197 1003.1 550.446H1003.1H1003.1H1003.09H1003.09C990.925 550.625 978.624 550.806 965.191 550.882C965.141 550.882 965.093 550.892 965.047 550.911C965.027 550.919 965.008 550.929 964.99 550.94C964.967 550.955 964.945 550.973 964.925 550.992C964.906 551.012 964.888 551.033 964.874 551.056C964.862 551.075 964.852 551.094 964.844 551.114C964.839 551.126 964.834 551.138 964.831 551.15C964.827 551.163 964.823 551.177 964.821 551.19C964.818 551.205 964.816 551.22 964.816 551.235C964.815 551.243 964.815 551.25 964.815 551.258V551.268C964.815 551.315 964.824 551.361 964.842 551.404C964.849 551.422 964.859 551.44 964.869 551.456C964.875 551.466 964.882 551.476 964.889 551.485C964.898 551.497 964.908 551.508 964.919 551.519C964.986 551.586 965.076 551.623 965.171 551.623C974.249 551.697 983.743 551.64 993.263 551.584C1003.5 551.523 1013.76 551.462 1023.57 551.562C1030.67 551.639 1037.92 551.504 1045.07 551.371L1045.08 551.371C1050.26 551.275 1055.39 551.179 1060.37 551.167C1125.14 550.95 1163.06 550.75 1174.13 550.568Z" fill="black"/>
<path fill-rule="evenodd" clip-rule="evenodd" d="M1062.77 374.381C1062.42 374.375 1062.22 374.138 1062.17 373.671C1060.56 360.799 1061.4 347.409 1062.37 334.537C1062.83 328.629 1063.21 325.679 1063.52 325.685C1063.84 325.692 1064.13 328.653 1064.39 334.568C1064.97 347.46 1065.39 360.87 1063.39 373.691C1063.31 374.151 1063.11 374.381 1062.77 374.381ZM1045.53 396.927L1008.55 341.542C1008.55 341.531 1008.54 341.518 1008.54 341.505C1008.53 341.491 1008.54 341.478 1008.54 341.464C1008.54 341.451 1008.55 341.439 1008.55 341.427C1008.56 341.416 1008.57 341.407 1008.58 341.4L1008.72 341.308C1008.89 341.19 1009.55 341.789 1010.64 343.071C1011.73 344.354 1013.24 346.295 1015.09 348.783C1016.93 351.272 1019.07 354.259 1021.38 357.575C1023.69 360.891 1026.13 364.47 1028.56 368.108L1028.66 368.26C1033.56 375.591 1038.11 382.717 1041.32 388.077C1044.54 393.438 1046.15 396.595 1045.81 396.856L1045.67 396.948C1045.66 396.956 1045.65 396.962 1045.64 396.965C1045.63 396.968 1045.61 396.969 1045.6 396.967C1045.59 396.965 1045.57 396.961 1045.56 396.954C1045.55 396.947 1045.54 396.938 1045.53 396.927ZM1570.2 359.87C1570.22 359.841 1570.24 359.814 1570.26 359.79C1570.34 359.714 1570.45 359.672 1570.56 359.672L1683.57 360.088C1683.59 360.088 1683.6 360.089 1683.62 360.091C1683.64 360.093 1683.66 360.097 1683.68 360.102C1683.7 360.107 1683.72 360.114 1683.74 360.123C1683.79 360.145 1683.84 360.178 1683.88 360.22C1683.89 360.23 1683.9 360.239 1683.91 360.25C1683.92 360.26 1683.92 360.27 1683.93 360.281C1683.95 360.308 1683.96 360.336 1683.97 360.366C1683.99 360.42 1684 360.477 1684 360.535L1681.27 422.894C1681.26 423.004 1681.21 423.107 1681.13 423.183C1681.05 423.259 1680.95 423.301 1680.84 423.301H1567.82C1567.76 423.301 1567.7 423.289 1567.65 423.266C1567.59 423.244 1567.55 423.21 1567.51 423.169C1567.47 423.127 1567.44 423.077 1567.42 423.023C1567.4 422.969 1567.39 422.912 1567.39 422.854L1570.13 360.078C1570.14 360.004 1570.16 359.932 1570.2 359.87ZM1099.23 382.076C1096.56 385.264 1093.28 389.605 1089.39 395.1C1089.38 395.133 1089.35 395.163 1089.32 395.187C1089.31 395.198 1089.3 395.207 1089.28 395.216C1089.27 395.22 1089.27 395.224 1089.26 395.227C1089.25 395.233 1089.24 395.237 1089.22 395.241C1089.19 395.252 1089.15 395.256 1089.11 395.253C1089.08 395.25 1089.04 395.239 1089.01 395.222C1088.97 395.205 1088.94 395.181 1088.92 395.152C1088.89 395.123 1088.88 395.09 1088.87 395.054C1088.85 395.019 1088.85 394.981 1088.85 394.943C1088.85 394.924 1088.86 394.904 1088.86 394.885C1088.87 394.869 1088.88 394.852 1088.88 394.836C1090.79 389.233 1093.48 384.35 1096.97 380.188C1100.46 376.026 1104.8 372.514 1109.99 369.651C1110.05 369.605 1110.13 369.585 1110.2 369.596C1110.28 369.606 1110.35 369.646 1110.39 369.707C1110.4 369.716 1110.41 369.725 1110.41 369.734C1110.42 369.744 1110.42 369.754 1110.43 369.764C1110.45 369.812 1110.46 369.866 1110.45 369.919C1110.44 369.994 1110.4 370.062 1110.34 370.108C1105.61 374.899 1101.91 378.888 1099.23 382.076ZM1803.55 378.3C1803.55 378.017 1803.66 377.745 1803.86 377.543C1804.06 377.341 1804.33 377.227 1804.61 377.224L1804.63 377.224C1804.91 377.222 1805.18 377.332 1805.39 377.53C1805.59 377.728 1805.7 377.998 1805.71 378.281L1805.96 407.556C1805.96 407.839 1805.85 408.111 1805.66 408.312C1805.46 408.514 1805.19 408.629 1804.9 408.631L1804.88 408.631C1804.6 408.634 1804.33 408.524 1804.13 408.326C1803.92 408.128 1803.81 407.858 1803.81 407.575L1803.55 378.3ZM1795.64 441.177L1796.14 416.042C1796.15 415.563 1796.34 415.104 1796.66 414.754C1796.99 414.403 1797.44 414.186 1797.92 414.144L1803.3 413.708C1803.5 413.69 1803.7 413.715 1803.88 413.779C1804.07 413.843 1804.24 413.945 1804.38 414.079C1804.53 414.213 1804.64 414.376 1804.72 414.557C1804.79 414.737 1804.83 414.932 1804.83 415.129L1804.31 441.421C1804.3 441.58 1804.24 441.732 1804.12 441.842C1804 441.952 1803.85 442.012 1803.69 442.009L1796.3 441.867C1796.28 441.867 1796.25 441.865 1796.23 441.862C1796.19 441.858 1796.16 441.85 1796.12 441.84C1796.1 441.832 1796.07 441.823 1796.05 441.812C1795.96 441.776 1795.89 441.725 1795.83 441.661C1795.77 441.597 1795.72 441.521 1795.69 441.438C1795.66 441.355 1795.64 441.266 1795.64 441.177ZM1034.57 452.13C1034.52 452.186 1034.45 452.22 1034.38 452.226C1034.3 452.232 1034.23 452.208 1034.17 452.161C1023.6 443.627 1013.07 436.666 1002.59 431.279C998.252 429.053 991.999 426.079 983.828 422.356C980.705 420.928 978.083 419.294 975.963 417.453C975.807 417.316 975.697 417.134 975.647 416.932C975.598 416.73 975.612 416.518 975.687 416.324C975.763 416.13 975.896 415.964 976.069 415.849C976.241 415.733 976.446 415.673 976.654 415.677C976.715 415.677 977.179 415.849 978.046 416.195C993.526 422.326 1008.05 430.332 1021.62 440.213C1024.89 442.595 1029.21 446.405 1034.57 451.643C1034.58 451.653 1034.59 451.664 1034.6 451.675C1034.61 451.687 1034.61 451.7 1034.62 451.714C1034.65 451.764 1034.67 451.821 1034.67 451.88C1034.67 451.968 1034.64 452.055 1034.58 452.12L1034.57 452.13ZM1055.15 517.86C1055.15 517.926 1055.13 517.991 1055.09 518.043C1055.05 518.095 1054.99 518.131 1054.93 518.142C1054.86 518.154 1054.8 518.14 1054.74 518.105C1054.69 518.07 1054.65 518.015 1054.63 517.951C1048.42 500.004 1036.29 483.071 1018.35 475.194C1011.29 472.095 1006.22 470.132 1003.13 469.306C992.124 466.376 982.27 463.703 973.564 461.287C971.83 460.806 970.306 460.072 968.991 459.084C968.833 458.963 968.712 458.8 968.64 458.614C968.569 458.428 968.551 458.226 968.588 458.03C968.625 457.835 968.715 457.653 968.849 457.506C968.983 457.358 969.156 457.251 969.347 457.196C978.757 454.462 988.51 453.443 998.604 454.14C1020.99 455.683 1040.68 478.27 1049.95 496.634C1053.37 503.408 1055.11 510.483 1055.15 517.86ZM1540.44 478.996C1540.44 478.845 1540.5 478.701 1540.61 478.596C1540.72 478.49 1540.86 478.431 1541.02 478.433L1645.78 479.346C1645.93 479.347 1646.08 479.408 1646.18 479.516C1646.29 479.623 1646.35 479.768 1646.35 479.919L1646.35 479.96C1646.35 480.111 1646.28 480.255 1646.18 480.36C1646.07 480.466 1645.92 480.525 1645.77 480.523L1541.01 479.61C1540.85 479.609 1540.71 479.548 1540.6 479.44C1540.5 479.332 1540.44 479.187 1540.44 479.037L1540.44 478.996ZM1280.68 479.518C1280.68 479.925 1242.54 479.921 1166.26 479.508C1165.22 479.502 1164.71 479.302 1164.71 478.909C1164.71 478.51 1165.23 478.314 1166.27 478.321C1242.55 478.713 1280.69 479.112 1280.68 479.518ZM1441.27 479.925C1441.27 480.013 1435.38 480.063 1423.62 480.077C1399.48 480.111 1375.34 480.023 1351.21 479.813C1349.02 479.799 1347.93 479.579 1347.93 479.153C1347.93 478.727 1349.03 478.52 1351.22 478.534C1375.35 478.73 1399.49 479.045 1423.63 479.478C1435.39 479.688 1441.27 479.837 1441.27 479.925ZM1721.32 479.505C1721.32 479.449 1721.33 479.393 1721.35 479.342C1721.37 479.29 1721.4 479.243 1721.44 479.204C1721.48 479.165 1721.53 479.133 1721.58 479.112C1721.59 479.107 1721.61 479.102 1721.62 479.098C1721.66 479.086 1721.7 479.08 1721.74 479.081L1811.54 479.55C1811.59 479.551 1811.65 479.562 1811.7 479.584C1811.75 479.605 1811.8 479.637 1811.84 479.677C1811.85 479.687 1811.86 479.697 1811.87 479.708C1811.88 479.728 1811.9 479.749 1811.91 479.772C1811.92 479.786 1811.92 479.801 1811.93 479.816C1811.93 479.825 1811.94 479.835 1811.94 479.844L1811.94 479.857L1811.95 479.869C1811.96 479.905 1811.96 479.942 1811.96 479.979L1811.96 480.019C1811.96 480.075 1811.95 480.131 1811.93 480.182C1811.91 480.234 1811.87 480.281 1811.83 480.32C1811.79 480.36 1811.75 480.391 1811.7 480.412C1811.64 480.433 1811.59 480.444 1811.53 480.444L1721.74 479.974C1721.7 479.974 1721.67 479.969 1721.64 479.961C1721.62 479.955 1721.6 479.949 1721.58 479.941C1721.56 479.934 1721.55 479.927 1721.53 479.919C1721.5 479.899 1721.47 479.875 1721.44 479.848C1721.4 479.808 1721.37 479.761 1721.35 479.709C1721.33 479.657 1721.32 479.601 1721.32 479.545L1721.32 479.505ZM1067.76 507.333C1067.71 507.333 1067.66 507.06 1067.62 506.527C1067.57 505.995 1067.52 505.215 1067.48 504.231C1067.44 503.247 1067.4 502.079 1067.37 500.794C1067.34 499.508 1067.32 498.13 1067.31 496.738C1067.3 495.347 1067.3 493.968 1067.3 492.682C1067.31 491.396 1067.32 490.228 1067.35 489.244C1067.37 488.259 1067.41 487.478 1067.44 486.945C1067.48 486.412 1067.53 486.138 1067.57 486.138C1067.62 486.137 1067.67 486.411 1067.72 486.943C1067.76 487.475 1067.81 488.255 1067.85 489.239C1067.89 490.223 1067.93 491.391 1067.96 492.677C1067.99 493.962 1068.01 495.34 1068.02 496.732C1068.03 498.124 1068.04 499.502 1068.03 500.788C1068.02 502.074 1068.01 503.242 1067.98 504.227C1067.96 505.211 1067.93 505.992 1067.89 506.525C1067.85 507.058 1067.81 507.332 1067.76 507.333ZM1190.77 549.654C1181.84 550.229 1176.3 550.534 1174.13 550.568C1163.06 550.75 1125.14 550.95 1060.37 551.167C1055.39 551.179 1050.26 551.275 1045.08 551.371L1045.07 551.371C1037.92 551.504 1030.67 551.639 1023.57 551.562C1013.76 551.462 1003.5 551.523 993.263 551.584C983.743 551.64 974.249 551.697 965.171 551.623C965.076 551.623 964.986 551.586 964.919 551.519C964.908 551.508 964.898 551.497 964.889 551.485C964.882 551.476 964.875 551.466 964.869 551.456C964.859 551.44 964.849 551.422 964.842 551.404C964.824 551.361 964.815 551.315 964.815 551.268V551.258C964.815 551.25 964.815 551.243 964.816 551.235C964.816 551.22 964.818 551.205 964.821 551.19C964.823 551.177 964.827 551.163 964.831 551.15C964.834 551.138 964.839 551.126 964.844 551.114C964.852 551.094 964.862 551.075 964.874 551.056C964.888 551.033 964.906 551.012 964.925 550.992C964.945 550.973 964.967 550.955 964.99 550.94C965.008 550.929 965.027 550.919 965.047 550.911C965.093 550.892 965.141 550.882 965.191 550.882C978.624 550.806 990.925 550.625 1003.09 550.446H1003.09H1003.1H1003.1H1003.1C1020.05 550.197 1036.72 549.952 1055.8 549.999C1096.95 550.101 1141.68 549.877 1189.99 549.329C1190.11 549.329 1190.23 549.309 1190.34 549.268C1190.53 549.207 1190.7 549.231 1190.85 549.339C1190.88 549.359 1190.9 549.388 1190.92 549.421C1190.93 549.454 1190.93 549.491 1190.92 549.525C1190.91 549.56 1190.89 549.591 1190.87 549.614C1190.84 549.637 1190.81 549.651 1190.77 549.654Z" fill="black"/>
</g>
</g>
<defs>
<clipPath id="clip0_4703_23335">
<rect width="1802" height="615" fill="white" transform="matrix(-1 0 0 1 1782 0)"/>
</clipPath>
</defs>
</svg>
